<svg xmlns="http://www.w3.org/2000/svg" xmlns:xlink="http://www.w3.org/1999/xlink" viewBox="0 0 1920 574"><defs><linearGradient id="linear-gradient" x1="958.35" x2="960.72" y1="631.8" y2="4.98" gradientUnits="userSpaceOnUse"><stop offset=".23" stop-color="#bca8d5"/><stop offset=".41" stop-color="#9f8dd8"/><stop offset=".78" stop-color="#6a5ce0"/><stop offset=".97" stop-color="#5649e3"/></linearGradient><linearGradient id="linear-gradient-2" x1="367.3" x2="181.92" y1="244.44" y2="437.8" gradientUnits="userSpaceOnUse"><stop offset=".17" stop-color="#9cbdd7" stop-opacity=".6"/><stop offset=".3" stop-color="#7b88d5" stop-opacity=".73"/><stop offset=".46" stop-color="#5d58d3" stop-opacity=".85"/><stop offset=".63" stop-color="#4836d2" stop-opacity=".93"/><stop offset=".8" stop-color="#3c22d1" stop-opacity=".98"/><stop offset="1" stop-color="#381cd1"/></linearGradient><linearGradient id="linear-gradient-3" x1="120.67" x2="120.35" y1="284.44" y2="323.71" gradientUnits="userSpaceOnUse"><stop offset="0" stop-color="#3d8be6"/><stop offset=".09" stop-color="#3c76e2"/><stop offset=".25" stop-color="#3a55db"/><stop offset=".43" stop-color="#393cd7"/><stop offset=".6" stop-color="#382ad3"/><stop offset=".79" stop-color="#381fd1"/><stop offset="1" stop-color="#381cd1"/></linearGradient><linearGradient id="linear-gradient-4" x1="485.54" x2="-9.41" y1="491.2" y2="332.43" gradientUnits="userSpaceOnUse"><stop offset="0" stop-color="#9cbdd7" stop-opacity=".6"/><stop offset=".16" stop-color="#7b88d5" stop-opacity=".73"/><stop offset=".35" stop-color="#5d58d3" stop-opacity=".85"/><stop offset=".55" stop-color="#4836d2" stop-opacity=".93"/><stop offset=".76" stop-color="#3c22d1" stop-opacity=".98"/><stop offset="1" stop-color="#381cd1"/></linearGradient><linearGradient id="linear-gradient-5" x1="125.73" x2="70.02" y1="316.56" y2="376.56" xlink:href="#linear-gradient-3"/><linearGradient id="linear-gradient-6" x1="347.53" x2="260.7" y1="433.88" y2="546.12" xlink:href="#linear-gradient-4"/><linearGradient id="linear-gradient-7" x1="529.39" x2="497.52" y1="258.57" y2="750.68" gradientUnits="userSpaceOnUse"><stop offset=".17" stop-color="#eec3d5"/><stop offset=".2" stop-color="#ebc7d9"/><stop offset=".36" stop-color="#e2ddee"/><stop offset=".51" stop-color="#dceafa"/><stop offset=".66" stop-color="#dbefff"/></linearGradient><linearGradient id="linear-gradient-8" x1="1385.4" x2="1485.06" y1="417.59" y2="352.59" gradientUnits="userSpaceOnUse"><stop offset=".34" stop-color="#528fff"/><stop offset=".39" stop-color="#5591ff" stop-opacity=".98"/><stop offset=".46" stop-color="#5d97ff" stop-opacity=".91"/><stop offset=".55" stop-color="#6ba1ff" stop-opacity=".8"/><stop offset=".64" stop-color="#7fafff" stop-opacity=".64"/><stop offset=".74" stop-color="#99c2ff" stop-opacity=".44"/><stop offset=".85" stop-color="#b7d7ff" stop-opacity=".2"/><stop offset=".93" stop-color="#d1eaff" stop-opacity="0"/></linearGradient><linearGradient id="linear-gradient-9" x1="1599.95" x2="1842.44" y1="237.49" y2="483.44" xlink:href="#linear-gradient-8"/><linearGradient id="linear-gradient-10" x1="1843.19" x2="1715.46" y1="-63.61" y2="158.73" xlink:href="#linear-gradient-2"/><linearGradient id="linear-gradient-11" x1="1715.41" x2="1819.75" y1="240.75" y2="-116.79" xlink:href="#linear-gradient-2"/><linearGradient id="linear-gradient-12" x1="1762.4" x2="1779.09" y1="177.39" y2="-30.6" xlink:href="#linear-gradient-2"/><linearGradient id="linear-gradient-13" x1="278.41" x2="544.46" y1="546.82" y2="509.07" xlink:href="#linear-gradient-8"/><linearGradient id="linear-gradient-14" x1="362.85" x2="392.73" y1="535.25" y2="398.41" gradientUnits="userSpaceOnUse"><stop offset=".34" stop-color="#528fff"/><stop offset=".39" stop-color="#5590ff" stop-opacity=".98"/><stop offset=".46" stop-color="#5d96ff" stop-opacity=".91"/><stop offset=".55" stop-color="#6b9eff" stop-opacity=".8"/><stop offset=".64" stop-color="#7fabff" stop-opacity=".64"/><stop offset=".74" stop-color="#99baff" stop-opacity=".44"/><stop offset=".85" stop-color="#b7cdff" stop-opacity=".2"/><stop offset=".93" stop-color="#d1ddff" stop-opacity="0"/></linearGradient><linearGradient id="linear-gradient-15" x1="1756.85" x2="1768.22" y1="389.21" y2="436.68" gradientUnits="userSpaceOnUse"><stop offset=".34" stop-color="#528fff"/><stop offset=".5" stop-color="#528fff" stop-opacity=".99"/><stop offset=".55" stop-color="#5692ff" stop-opacity=".97"/><stop offset=".59" stop-color="#5c96ff" stop-opacity=".92"/><stop offset=".63" stop-color="#649cff" stop-opacity=".85"/><stop offset=".65" stop-color="#6fa4ff" stop-opacity=".77"/><stop offset=".68" stop-color="#7dadff" stop-opacity=".66"/><stop offset=".7" stop-color="#8db9ff" stop-opacity=".53"/><stop offset=".72" stop-color="#a0c6ff" stop-opacity=".39"/><stop offset=".74" stop-color="#b5d6ff" stop-opacity=".22"/><stop offset=".76" stop-color="#cce6ff" stop-opacity=".04"/><stop offset=".76" stop-color="#d1eaff" stop-opacity="0"/></linearGradient><linearGradient id="linear-gradient-16" x1="1777.29" x2="1723.28" y1="418.29" y2="340.23" gradientUnits="userSpaceOnUse"><stop offset=".29" stop-color="#c130ff" stop-opacity="0"/><stop offset=".38" stop-color="#bf37ff" stop-opacity=".02"/><stop offset=".47" stop-color="#bc4dff" stop-opacity=".07"/><stop offset=".57" stop-color="#b671ff" stop-opacity=".15"/><stop offset=".62" stop-color="#b38aff" stop-opacity=".2"/></linearGradient><linearGradient id="linear-gradient-17" x1="330.3" x2="467.2" y1="539.62" y2="379.66" gradientUnits="userSpaceOnUse"><stop offset=".2" stop-color="#c130ff" stop-opacity="0"/><stop offset=".37" stop-color="#c033ff" stop-opacity="0"/><stop offset=".45" stop-color="#be41ff" stop-opacity=".04"/><stop offset=".51" stop-color="#ba58ff" stop-opacity=".09"/><stop offset=".57" stop-color="#b578ff" stop-opacity=".16"/><stop offset=".59" stop-color="#b38aff" stop-opacity=".2"/></linearGradient><linearGradient id="linear-gradient-18" x1="1342.64" x2="1351.52" y1="494.96" y2="520.51" xlink:href="#linear-gradient-15"/><linearGradient id="linear-gradient-19" x1="1355.53" x2="1318.34" y1="505.53" y2="471.45" xlink:href="#linear-gradient-16"/><radialGradient id="radial-gradient" cx="201.35" cy="412.8" r="277.2" fx="201.35" fy="412.8" gradientUnits="userSpaceOnUse"><stop offset="0" stop-color="#b815ff" stop-opacity="0"/><stop offset=".28" stop-color="#b817ff" stop-opacity="0"/><stop offset=".38" stop-color="#ba1eff" stop-opacity=".03"/><stop offset=".45" stop-color="#bd2cff" stop-opacity=".08"/><stop offset=".51" stop-color="#c13fff" stop-opacity=".15"/><stop offset=".56" stop-color="#c758ff" stop-opacity=".23"/><stop offset=".61" stop-color="#ce76ff" stop-opacity=".34"/><stop offset=".65" stop-color="#d69aff" stop-opacity=".46"/><stop offset=".68" stop-color="#e0c2ff" stop-opacity=".6"/><stop offset=".68" stop-color="#e0c2fd" stop-opacity=".59"/><stop offset=".7" stop-color="#e9cde6" stop-opacity=".44"/><stop offset=".72" stop-color="#f0d6d3" stop-opacity=".32"/><stop offset=".73" stop-color="#f5ddc4" stop-opacity=".22"/><stop offset=".75" stop-color="#f9e2ba" stop-opacity=".15"/><stop offset=".77" stop-color="#fce5b4" stop-opacity=".11"/><stop offset=".79" stop-color="#fde6b2" stop-opacity=".1"/></radialGradient><radialGradient id="radial-gradient-2" cx="1239.16" cy="361" r="280.59" fx="1239.16" fy="361" gradientTransform="translate(-3.96 510.51) rotate(-15.09) scale(1 .5)" gradientUnits="userSpaceOnUse"><stop offset=".04" stop-color="#eec3e3"/><stop offset=".78" stop-color="#d1eaff"/></radialGradient><radialGradient id="radial-gradient-3" cx="1765.63" cy="70.15" r="122.45" fx="1765.63" fy="70.15" gradientUnits="userSpaceOnUse"><stop offset="0" stop-color="#c130ff" stop-opacity="0"/><stop offset=".38" stop-color="#c132ff" stop-opacity="0"/><stop offset=".52" stop-color="#c33dff" stop-opacity=".03"/><stop offset=".62" stop-color="#c750ff" stop-opacity=".08"/><stop offset=".7" stop-color="#cd6bff" stop-opacity=".15"/><stop offset=".76" stop-color="#d48eff" stop-opacity=".23"/><stop offset=".82" stop-color="#ddb9ff" stop-opacity=".34"/><stop offset=".85" stop-color="#e3d3ff" stop-opacity=".4"/></radialGradient><style>.cls-1{fill:#e53b4c}.cls-1,.cls-4,.cls-5{opacity:.7}.cls-6{fill:#ff6879}.cls-14{fill:#33755d}.cls-45{fill:#fff}.cls-47{fill:#3c8a6f}.cls-50{fill:#4d9c7f}.cls-51,.cls-52,.cls-53{isolation:isolate}.cls-51,.cls-52,.cls-60{fill:#eee}.cls-51,.cls-61{opacity:.5}.cls-52{opacity:.2}.cls-62{fill:#d1eaff}.cls-72{opacity:.3}.cls-74{fill:#eae6ff}.cls-76{fill:#ff5769}.cls-77{fill:#4fb373}.cls-53{fill:#528fff;opacity:.31}.cls-82{opacity:.15}.cls-5{fill:#da3b49}.cls-84{fill:#ff495d}.cls-85{fill:#c9dcff}.cls-87{fill:#b63912}.cls-89{fill:#53ae8c}.cls-90{fill:#ffd5ff}</style></defs><g id="new_HP"><g><rect width="1920" height="574" x="0" class="cls-45"/><path id="path355" d="M807.08,337.62s-517.72,36.16-527.42,50.26c-93.1,136.2,55.32,216.84,183.22,152.74,172.4-86.3,313.8-104.3,456.8-10.2,143,94.1-112.6-192.8-112.6-192.8Z" class="cls-53"/><g><path fill="#3259da" d="M1920,0v352.86c-4.8,2.62-11.5,6.31-15.11,8.33h-.01s-.02.01-.03.02c-7.4,4.12-14.65,7.57-21.55,10.55h0s-.02.01-.02.01c-10.83,4.73-24.78,9.5-30.74,11.05h0c-37.31,10.78-78.35,12.77-114.7-2.2h-.02c-11.69-4.8-22.6-11.21-33.04-19.63h-.01v-.02c-10.62-8.54-16.49-16.02-21.94-21h-.01c-6.06-5.74-12.33-8.93-20.23-10.97-6.4-1.7-16.48,1.4-22.88,4.77h0c-4.36,2.36-6.52,4.36-8.84,6.34,0,.01-.01.02-.01.02,0,0,0,.01-.01.01h0s0,.01-.01.01c0,0,0,.01-.01.02-.01,0-.01.01-.02.01-.08.16-2.41,1.94-5.63,6.42-29.73,40.15-104.46,97.85-107.3,97.85-30.62,21.55-60.91,39.11-82.6,47.15-29.5,10.96-65.84,19.92-96.71,24.6-35.23,6.07-65.82-.79-67.86-.79-2.93-.48-10.34-1.83-10.81-1.99h-.04c-89.69-18.04-174.12-72.3-254.51-3.02-16.9,14.5-19.6,47.6-18.5,63.6h-29.9c-89-94.2-223.51-126.2-352.42-103.2-.1-.1-.6-.4-.5-.3-50.7,9.2-76.2,20.5-122.6,36.3-103.08,30.93-223.9,37.32-222.62-70.3.61-6.19,2.21-13.42,4.7-20.24h0c5.16-13.88,13.12-25.59,22.94-36.66t.01,0c1.67-1.89,3.35-3.72,5.01-5.49t.01,0c.83-.87,1.65-1.73,2.46-2.58,0,0,.01,0,.01-.01,7.74-8.04,13.79-13.66,17.79-19.03,0,0,.01,0,.01-.01,3.27-4.36,4.94-8.53,1.19-12.38-3.73-3.79-10.24-5.67-10.58-5.67C246.17,318.34,45.97,391.09,0,322.7V0h1920Z"/><path fill="url(#linear-gradient)" d="M1920.07,0v352.86c-4.8,2.62-11.5,6.31-15.11,8.33h-.01s-.02,0-.03.02c-7.4,4.12-14.58,7.54-21.55,10.55h0s-.02.01-.02.01c-11.48,5.02-29.67,11.06-30.74,11.06-37.39,10.79-78.43,12.72-114.7-2.21h-.02c-12.05-4.94-22.9-11.46-33.04-19.63h-.01v-.02c-10.62-8.54-16.49-16.02-21.94-21h-.01c-5.95-5.63-12.14-8.88-20.23-10.97-3.8-1.01-13.03-.38-22.31,4.46-4.34,2.51-4.51,2.46-9.42,6.67,0,0,0,0-.01,0h0s0,.01-.01.01c0,0,0,.01-.01.02-.01,0-.01.01-.02.01-.24.48-1.51.65-7.08,8.42-27.87,37.79-103.11,95.85-105.85,95.85-30.62,21.55-60.91,39.11-82.6,47.15-29.5,10.96-65.84,19.92-96.71,24.6-35.23,6.07-65.82-.79-67.86-.79-2.94-.49-10.42-1.86-10.81-1.99h-.04c-89.75-18.03-174.09-72.33-254.51-3.02-16.9,14.5-19.6,47.6-18.5,63.6h-29.9c-89-94.2-223.51-126.2-352.42-103.2-.1-.1-.6-.4-.5-.3-50.7,9.2-76.2,20.5-122.6,36.3-76.36,22.91-160.91,31.89-200.23-6.88-20.28-19.96-29.21-53.54-17.69-83.66h0c5.14-13.82,13.21-25.69,22.94-36.66t.01-.01c1.67-1.89,3.35-3.72,5.01-5.49t.01-.01c.83-.87,1.65-1.73,2.46-2.58,0,0,.01,0,.01,0,7.46-7.75,13.76-13.61,17.79-19.03,0,0,0,0,0-.01,1.6-2.14,3.36-5.08,3.36-7.74,0-6.16-11.65-10.31-12.75-10.31-41.15-11.77-159.51,24.12-238.06,17.27-24.3-2.11-50.7-8.75-64.3-28.98V0h1920Z" opacity=".7"/></g></g><g><g id="left_planet"><path fill="#918fda" d="M354.12,515.63c-1.57,2.45-3.2,4.88-4.9,7.28-6.5-.5-13.2-1.3-20.2-2.2-55.98-4.71-90.01-53.93-63.6-109.22.01-.01.02-.03.02-.05,2.01-4.19,4.54-8.8,7.38-13.3,0,0,.01,0,.01,0,4.98-7.91,10.96-15.27,11.14-15.39,10.07-12.29,22.2-22.79,27.77-30.27,0,0,.01,0,.01-.01,3.27-4.36,4.94-8.53,1.19-12.38-4.2-4.27-11.4-5.87-11.63-5.96-4.4,0-9.7-6-66.61,1.79-2.82.39-5.7.8-8.61,1.23-20.14,2.96-45.21,7.23-76.29,10.72-.01.01-.09,0-.11.02-33.73,4.19-82.1,8.61-114.69-1.53,40.67-88.79,145.3-133,235.26-96.43,105.22,43.07,145.3,170.04,83.86,265.71Z"/><path fill="url(#linear-gradient-2)" d="M354.12,515.63c-1.57,2.45-3.2,4.88-4.9,7.28-6.5-.5-13.2-1.3-20.2-2.2-.79-.46-1.58-.92-2.37-1.37h-.01c-.06-.04-.11-.07-.17-.1-.01,0-.02-.01-.02-.01-26.91-15.65-62.34-36.3-68.54-65.47-.01-.01-.01-.03-.01-.04-3.15-14.57.98-29.2,7.65-42.53.01-.01.02-.03.02-.05,1.01-2.12,2.07-4.18,3.17-6.17.01-.01.01-.02.01-.02,5.99-10.92,14.89-21.99,15.22-22.21,10.07-12.29,22.2-22.79,27.77-30.27,0,0,.01,0,.01-.01,3.27-4.36,4.94-8.53,1.19-12.38-3.16-3.21-7.47-4.76-11.7-5.97-3.83,0-10.38-5.89-66.54,1.8-2.82.39-5.7.8-8.61,1.23-20.14,2.96-45.21,7.23-76.29,10.72-.01.01-.09,0-.11.02-33.73,4.19-82.1,8.61-114.69-1.53,42.52-92.83,155.35-137.46,248.73-90.3,94.32,47.36,129.5,167.54,70.39,259.58Z" opacity=".3"/><path fill="url(#linear-gradient-3)" d="M199.82,307.41c-2.2,8.9-2.5,19.4-1,30.2-61.19,8.89-114.42,21.7-159.19,10.04,17.32-27.1,44.92-50.64,70.79-62.54,41.2-19,82.6-18.1,89.6,5.3,1.4,4.8,1.5,10.4-.2,17Z" opacity=".3"/><path fill="url(#linear-gradient-4)" d="M383.02,415.72c0,36.5-10.62,73.94-33.72,106.64-6.5-.5-13.82-1.91-20.81-2.77-54.67-6.73-93.58-60.3-56.2-121.2,7.3-3.2,13.43-7.77,19.43-12.87,40.36-33.22,91.3-23.34,91.3,30.2Z" opacity=".3"/><path fill="url(#linear-gradient-5)" d="M145.82,345.01c-25.98,3.15-52.56,7.27-75.77,7.08-.1-.03-10.16-.42-21.49-2.48,41.26-46.11,110.9-52.77,97.26-4.6Z" opacity=".3"/><path fill="url(#linear-gradient-6)" d="M349.3,522.36c-2.9-.3-6.46-.43-20.81-2.77-38.46-6.26-64.39-30.1-70.99-60.1.1-.1,25.22-23.27,52.02-35.37,21.8-9.7,42.4-10.6,48.1,12.2,8.45,32.58,4.34,59.06-8.32,86.04Z" opacity=".3"/><g class="cls-4"><path fill="url(#radial-gradient)" d="M354.12,515.63c-1.57,2.45-3.2,4.88-4.9,7.28-6.5-.5-13.2-1.3-20.2-2.2-55.98-4.71-90.01-53.93-63.6-109.22.01-.01.02-.03.02-.05.93-1.94,2.56-5.11,3.3-6.47.01-.01.01-.02.01-.02,5.79-10.75,10.29-17.01,17.7-25.35t.01-.01c1.67-1.89,3.35-3.72,5.01-5.49t.01-.01c.83-.87,1.65-1.73,2.46-2.58,0,0,.01,0,.01,0,4.1-4.47,13.16-12.8,17.79-19.03,0,0,.01,0,.01-.01,3.27-4.36,4.94-8.53,1.19-12.38-3.16-3.21-7.47-4.76-11.7-5.97-.01,0-.02-.01-.03-.01-29.6-7.4-81.07,5.86-151.41,13.76-.01.01-.09,0-.11.02-33.73,4.19-82.1,8.61-114.69-1.53,40.67-88.79,145.3-133,235.26-96.43,105.41,43.15,145.16,170.26,83.86,265.71Z"/></g></g><g id="stars"><circle cx="106.54" cy="220.01" r="1.12" fill="#fff" opacity=".8"/><circle cx="380.55" cy="309.08" r="3.39" fill="#fff" opacity=".89"/><circle cx="658.11" cy="294.3" r="1.32" fill="#fff" opacity=".87"/><circle cx="497.95" cy="86.81" r="1.51" fill="#fff" opacity=".7"/><circle cx="1435.17" cy="264.66" r="3.35" fill="#fff" opacity=".66"/><circle cx="1180" cy="104.39" r="2.7" fill="#fff" opacity=".88"/><circle cx="1356.91" cy="160.95" r="2.31" fill="#fff" opacity=".81"/><circle cx="1784.47" cy="337.62" r="3.4" fill="#fff" opacity=".69"/><circle cx="1842.08" cy="188.15" r=".69" fill="#fff" opacity=".73"/><circle cx="942.5" cy="469.73" r=".59" fill="#fff" opacity=".89"/><circle cx="1510.24" cy="87.86" r="2.81" fill="#fff" opacity=".87"/><circle cx="1422.56" cy="446.93" r="1.15" fill="#fff" opacity=".6"/><circle cx="324.88" cy="241.47" r="1.25" fill="#fff" opacity=".7"/><circle cx="345.59" cy="71.62" r="1.62" fill="#fff" opacity=".8"/><circle cx="739.67" cy="251.51" r="2.8" fill="#fff" opacity=".74"/><circle cx="968.64" cy="108.66" r="1.71" fill="#fff" opacity=".71"/><circle cx="1195.16" cy="243.69" r="1.09" fill="#fff" opacity=".82"/><circle cx="655.61" cy="106.35" r="2.51" fill="#fff" opacity=".7"/><circle cx="555.53" cy="377.47" r="2.22" fill="#fff" opacity=".82"/><circle cx="1111.19" cy="65.19" r=".67" fill="#fff" opacity=".81"/><circle cx="1596.59" cy="322.37" r="1.22" fill="#fff" opacity=".6"/><circle cx="826.18" cy="80.54" r="3.43" fill="#fff" opacity=".61"/><circle cx="1558.53" cy="179.64" r=".76" fill="#fff" opacity=".74"/><circle cx="69.75" cy="50.09" r="3.01" fill="#fff" opacity=".82"/><circle cx="1028.26" cy="195.94" r=".8" fill="#fff" opacity=".6"/><circle cx="1269.93" cy="92.79" r=".91" fill="#fff" opacity=".88"/><circle cx="237.52" cy="187.67" r="2.22" fill="#fff" opacity=".7"/><circle cx="868.6" cy="221.66" r="1.17" fill="#fff" opacity=".87"/><circle cx="655.04" cy="379.05" r=".56" fill="#fff" opacity=".62"/><circle cx="1259.93" cy="439.61" r="1.09" fill="#fff" opacity=".84"/><g class="cls-72"><g><path d="M502.72,258.66c-.29,0-.53-.24-.53-.53v-18.85c0-.29.24-.53.53-.53s.53.24.53.53v18.85c0,.29-.24.53-.53.53Z" class="cls-45"/><g><path d="M502.72,243.22c-.09,0-.18-.02-.27-.07l-2.87-1.66c-.25-.15-.34-.47-.19-.73.15-.25.47-.34.73-.19l2.6,1.5,2.6-1.5c.25-.15.58-.06.73.19.15.25.06.58-.19.73l-2.87,1.66c-.08.05-.17.07-.27.07Z" class="cls-45"/><path d="M505.59,256.9c-.09,0-.18-.02-.27-.07l-2.6-1.5-2.6,1.5c-.25.15-.58.06-.73-.19-.15-.25-.06-.58.19-.73l2.87-1.66c.16-.1.37-.1.53,0l2.87,1.66c.25.15.34.47.19.73-.1.17-.28.27-.46.27Z" class="cls-45"/></g></g><g><path d="M510.88,253.95c-.09,0-.18-.02-.27-.07l-16.32-9.42c-.25-.15-.34-.47-.19-.73.15-.25.47-.34.73-.19l16.32,9.42c.25.15.34.47.19.73-.1.17-.28.27-.46.27Z" class="cls-45"/><g><path d="M494.64,247.89c-.18,0-.36-.1-.46-.27-.15-.25-.06-.58.19-.73l2.6-1.5v-3.01c0-.29.24-.53.53-.53s.53.24.53.53v3.31c0,.19-.1.37-.27.46l-2.87,1.66c-.08.05-.18.07-.27.07Z" class="cls-45"/><path d="M507.92,255.55c-.29,0-.53-.24-.53-.53v-3.31c0-.19.1-.37.27-.46l2.87-1.66c.25-.15.58-.06.73.19.15.25.06.58-.19.73l-2.6,1.5v3.01c0,.29-.24.53-.53.53Z" class="cls-45"/></g></g><g><path d="M494.56,253.95c-.18,0-.36-.1-.46-.27-.15-.25-.06-.58.19-.73l16.32-9.42c.25-.15.58-.06.73.19.15.25.06.58-.19.73l-16.32,9.42c-.08.05-.18.07-.27.07Z" class="cls-45"/><g><path d="M510.79,247.89c-.09,0-.18-.02-.27-.07l-2.87-1.66c-.16-.1-.27-.27-.27-.46v-3.31c0-.29.24-.53.53-.53h0c.29,0,.53.24.53.53v3.01s2.6,1.5,2.6,1.5c.25.15.34.47.19.73-.1.17-.28.27-.46.27Z" class="cls-45"/><path d="M497.51,255.55h0c-.29,0-.53-.24-.53-.53v-3.01s-2.6-1.5-2.6-1.5c-.25-.15-.34-.47-.19-.73.15-.25.47-.34.73-.19l2.87,1.66c.16.1.27.27.27.46v3.31c0,.29-.24.53-.53.53Z" class="cls-45"/></g></g></g><g class="cls-61"><g><path d="M1428.78,103.24c-.3,0-.55-.25-.55-.56v-19.85c0-.31.25-.56.55-.56s.55.25.55.56v19.85c0,.31-.25.56-.55.56Z" class="cls-45"/><g><path d="M1428.78,85.96c-.09,0-.19-.03-.27-.08l-2.63-1.55c-.26-.15-.35-.5-.2-.77.15-.27.49-.36.75-.21l2.35,1.39,2.35-1.39c.26-.15.6-.06.75.21.15.27.06.61-.2.77l-2.63,1.55c-.08.05-.18.08-.27.08Z" class="cls-45"/><path d="M1428.78,88.29c-.09,0-.19-.03-.27-.08l-1.31-.78c-.26-.15-.35-.5-.2-.77.15-.27.49-.36.75-.21l1.04.61,1.04-.61c.26-.15.6-.06.75.21.15.27.06.61-.2.77l-1.31.78c-.08.05-.18.08-.27.08Z" class="cls-45"/><path d="M1426.16,102.22c-.19,0-.37-.1-.48-.28-.15-.27-.06-.61.2-.77l2.63-1.55c.17-.1.38-.1.55,0l2.63,1.55c.26.15.35.5.2.77-.15.27-.49.36-.75.21l-2.35-1.39-2.35,1.39c-.09.05-.18.08-.27.08Z" class="cls-45"/><path d="M1430.1,99.12c-.09,0-.19-.02-.27-.08l-1.04-.61-1.04.61c-.26.15-.6.06-.75-.21-.15-.27-.06-.61.2-.77l1.31-.78c.17-.1.38-.1.55,0l1.31.78c.26.15.35.5.2.77-.1.18-.29.28-.48.28Z" class="cls-45"/></g></g><g><path d="M1437.19,98.28c-.09,0-.19-.02-.27-.08l-16.81-9.92c-.26-.15-.35-.5-.2-.77.15-.27.49-.36.75-.21l16.81,9.92c.26.15.35.5.2.77-.1.18-.29.28-.48.28Z" class="cls-45"/><g><path d="M1419.93,91.19c-.19,0-.37-.1-.48-.28-.15-.27-.06-.61.2-.77l2.35-1.39v-2.78c0-.31.25-.56.55-.56s.55.25.55.56v3.1c0,.2-.1.39-.27.49l-2.63,1.55c-.09.05-.18.08-.27.08Z" class="cls-45"/><path d="M1423.21,91.58c-.19,0-.37-.1-.48-.28-.15-.27-.06-.61.2-.77l1.04-.61v-1.23c0-.31.25-.56.55-.56s.55.25.55.56v1.55c0,.2-.1.39-.27.49l-1.31.78c-.09.05-.18.08-.27.08Z" class="cls-45"/><path d="M1435.01,100.09c-.3,0-.55-.25-.55-.56v-3.1c0-.2.1-.39.27-.49l2.63-1.55c.26-.15.6-.06.75.21.15.27.06.61-.2.77l-2.35,1.39v2.78c0,.31-.25.56-.55.56Z" class="cls-45"/><path d="M1433.04,97.38c-.3,0-.55-.25-.55-.56v-1.55c0-.2.1-.39.27-.49l1.31-.78c.26-.15.6-.06.75.21.15.27.06.61-.2.77l-1.04.61v1.23c0,.31-.25.56-.55.56Z" class="cls-45"/></g></g><g><path d="M1420.38,98.28c-.19,0-.37-.1-.48-.28-.15-.27-.06-.61.2-.77l16.81-9.92c.26-.15.6-.06.75.21s.06.61-.2.77l-16.81,9.92c-.09.05-.18.08-.27.08Z" class="cls-45"/><g><path d="M1437.63,91.19c-.09,0-.19-.02-.27-.08l-2.63-1.55c-.17-.1-.27-.29-.27-.49v-3.1c0-.31.25-.56.55-.56s.55.25.55.56v2.78l2.35,1.39c.26.15.35.5.2.77-.1.18-.29.28-.48.28Z" class="cls-45"/><path d="M1434.35,91.58c-.09,0-.19-.02-.27-.08l-1.31-.78c-.17-.1-.27-.29-.27-.49v-1.55c0-.31.25-.56.55-.56s.55.25.55.56v1.23l1.04.61c.26.15.35.5.2.77-.1.18-.29.28-.48.28Z" class="cls-45"/><path d="M1422.56,100.09c-.3,0-.55-.25-.55-.56v-2.78l-2.35-1.39c-.26-.15-.35-.5-.2-.77.15-.27.49-.36.75-.21l2.63,1.55c.17.1.27.29.27.49v3.1c0,.31-.25.56-.55.56Z" class="cls-45"/><path d="M1424.53,97.38h0c-.3,0-.55-.25-.55-.56v-1.23s-1.04-.61-1.04-.61c-.26-.15-.35-.5-.2-.77.15-.27.49-.36.75-.21l1.31.78c.17.1.27.29.27.49v1.55c0,.31-.25.56-.55.56Z" class="cls-45"/></g></g><path d="M1431.73,92.27l-1.06-.63v-1.25c0-.2-.1-.39-.27-.49-.17-.1-.38-.1-.55,0l-1.06.63-1.06-.63c-.17-.1-.38-.1-.55,0-.17.1-.27.29-.27.49v1.25l-1.06.63c-.17.1-.27.29-.27.49s.1.39.27.49l1.06.63v1.25c0,.2.1.39.27.49.17.1.38.1.55,0l1.06-.63,1.06.63c.08.05.18.08.27.08s.19-.03.27-.08c.17-.1.27-.29.27-.49v-1.25l1.06-.63c.17-.1.27-.29.27-.49s-.1-.39-.27-.49ZM1431.12,92.95l-.9.53c-.07.04-.11.11-.11.2v1.06c0,.17-.18.28-.33.2l-.9-.53c-.07-.04-.15-.04-.22,0l-.9.53c-.15.09-.33-.02-.33-.2v-1.06c0-.08-.04-.15-.11-.2l-.9-.53c-.15-.09-.15-.3,0-.39l.9-.53c.07-.04.11-.11.11-.2v-1.06c0-.17.18-.28.33-.2l.9.53c.07.04.15.04.22,0l.9-.53c.15-.09.33.02.33.2v1.06c0,.08.04.15.11.2l.9.53c.15.09.15.3,0,.39Z" class="cls-45"/></g><g class="cls-61"><g><path d="M211.54,108.26c-.42,0-.76-.35-.76-.78v-27.54c0-.43.34-.78.76-.78s.76.35.76.78v27.54c0,.43-.34.78-.76.78Z" class="cls-45"/><g><path d="M211.54,84.28c-.13,0-.26-.03-.38-.1l-3.64-2.15c-.36-.21-.49-.69-.28-1.06.21-.37.68-.5,1.04-.28l3.26,1.93,3.26-1.93c.36-.21.83-.09,1.04.28.21.37.09.85-.28,1.06l-3.64,2.15c-.12.07-.25.1-.38.1Z" class="cls-45"/><path d="M211.54,87.51c-.13,0-.26-.03-.38-.1l-1.82-1.08c-.36-.21-.49-.69-.28-1.06.21-.37.68-.5,1.04-.28l1.44.85,1.44-.85c.36-.21.83-.09,1.04.28.21.37.09.85-.28,1.06l-1.82,1.08c-.12.07-.25.1-.38.1Z" class="cls-45"/><path d="M207.9,106.84c-.26,0-.52-.14-.66-.39-.21-.37-.09-.85.28-1.06l3.64-2.15c.24-.14.53-.14.76,0l3.64,2.15c.36.21.49.69.28,1.06-.21.37-.68.5-1.04.28l-3.26-1.93-3.26,1.93c-.12.07-.25.1-.38.1Z" class="cls-45"/><path d="M213.36,102.53c-.13,0-.26-.03-.38-.1l-1.44-.85-1.44.85c-.36.21-.83.09-1.04-.28-.21-.37-.09-.85.28-1.06l1.82-1.08c.24-.14.53-.14.76,0l1.82,1.08c.36.21.49.69.28,1.06-.14.25-.4.39-.66.39Z" class="cls-45"/></g></g><g><path d="M223.2,101.37c-.13,0-.26-.03-.38-.1l-23.32-13.77c-.36-.21-.49-.69-.28-1.06.21-.37.68-.5,1.04-.28l23.32,13.77c.36.21.49.69.28,1.06-.14.25-.4.39-.66.39Z" class="cls-45"/><g><path d="M199.26,91.53c-.26,0-.52-.14-.66-.39-.21-.37-.09-.85.28-1.06l3.26-1.93v-3.85c0-.43.34-.78.76-.78s.76.35.76.78v4.3c0,.28-.15.54-.38.67l-3.64,2.15c-.12.07-.25.1-.38.1Z" class="cls-45"/><path d="M203.81,92.07c-.26,0-.52-.14-.66-.39-.21-.37-.09-.85.28-1.06l1.44-.85v-1.7c0-.43.34-.78.76-.78s.76.35.76.78v2.15c0,.28-.15.54-.38.67l-1.82,1.08c-.12.07-.25.1-.38.1Z" class="cls-45"/><path d="M220.18,103.89c-.42,0-.76-.35-.76-.78v-4.3c0-.28.15-.53.38-.67l3.64-2.15c.36-.21.83-.09,1.04.28.21.37.09.85-.28,1.06l-3.26,1.93v3.85c0,.43-.34.78-.76.78Z" class="cls-45"/><path d="M217.45,100.12c-.42,0-.76-.35-.76-.78v-2.15c0-.28.15-.54.38-.67l1.82-1.08c.36-.21.83-.09,1.04.28.21.37.09.85-.28,1.06l-1.44.85v1.7c0,.43-.34.78-.76.78Z" class="cls-45"/></g></g><g><path d="M199.88,101.37c-.26,0-.52-.14-.66-.39-.21-.37-.09-.85.28-1.06l23.33-13.77c.36-.21.83-.09,1.04.28s.09.85-.28,1.06l-23.33,13.77c-.12.07-.25.1-.38.1Z" class="cls-45"/><g><path d="M223.83,91.53c-.13,0-.26-.03-.38-.1l-3.64-2.15c-.24-.14-.38-.4-.38-.67v-4.3c0-.43.34-.78.76-.78s.76.35.76.78v3.85l3.26,1.93c.36.21.49.69.28,1.06-.14.25-.4.39-.66.39Z" class="cls-45"/><path d="M219.27,92.07c-.13,0-.26-.03-.38-.1l-1.82-1.08c-.24-.14-.38-.4-.38-.67v-2.15c0-.43.34-.78.76-.78s.76.35.76.78v1.7l1.44.85c.36.21.49.69.28,1.06-.14.25-.4.39-.66.39Z" class="cls-45"/><path d="M202.9,103.89c-.42,0-.76-.35-.76-.78v-3.85l-3.26-1.93c-.36-.21-.49-.69-.28-1.06.21-.37.68-.5,1.04-.28l3.64,2.15c.24.14.38.4.38.67v4.3c0,.43-.34.78-.76.78Z" class="cls-45"/><path d="M205.64,100.12h0c-.42,0-.76-.35-.76-.78v-1.7s-1.44-.85-1.44-.85c-.36-.21-.49-.69-.28-1.06.21-.37.68-.5,1.04-.28l1.82,1.08c.24.14.38.4.38.67v2.15c0,.43-.34.78-.76.78Z" class="cls-45"/></g></g><path d="M215.63,93.03l-1.47-.87v-1.74c0-.28-.15-.53-.38-.67-.24-.14-.53-.14-.76,0l-1.47.87-1.47-.87c-.24-.14-.53-.14-.76,0-.24.14-.38.4-.38.67v1.74l-1.47.87c-.24.14-.38.4-.38.67s.15.54.38.67l1.47.87v1.74c0,.28.15.53.38.67.24.14.53.14.76,0l1.47-.87,1.47.87c.12.07.25.1.38.1s.26-.03.38-.1c.24-.14.38-.4.38-.67v-1.74l1.47-.87c.24-.14.38-.4.38-.67s-.15-.53-.38-.67ZM214.79,93.98l-1.24.73c-.09.06-.15.16-.15.27v1.47c0,.24-.25.39-.46.27l-1.24-.73c-.09-.06-.21-.06-.31,0l-1.24.73c-.2.12-.46-.03-.46-.27v-1.47c0-.11-.06-.22-.15-.27l-1.24-.73c-.2-.12-.2-.42,0-.54l1.24-.73c.09-.06.15-.16.15-.27v-1.47c0-.24.25-.39.46-.27l1.24.73c.09.06.21.06.31,0l1.24-.73c.2-.12.46.03.46.27v1.47c0,.11.06.22.15.27l1.24.73c.2.12.2.42,0,.54Z" class="cls-45"/></g><g class="cls-61"><g><path d="M1393.86,275.83c-.27.07-.54-.09-.61-.36l-4.38-17.2c-.07-.27.09-.54.36-.61s.54.09.61.36l4.38,17.2c.07.27-.09.54-.36.61Z" class="cls-45"/><g><g><path d="M1390.84,263.99c-.12.03-.26.02-.38-.05l-2.38-1.42c-.24-.14-.32-.45-.18-.69.14-.24.45-.32.69-.18l1.95,1.16,1.16-1.95c.14-.24.45-.32.69-.18.24.14.32.45.18.69l-1.42,2.38c-.07.12-.18.2-.31.23Z" class="cls-45"/><path d="M1390.28,261.79c-.12.03-.26.02-.38-.05l-1.51-.9c-.24-.14-.32-.45-.18-.69.14-.24.45-.32.69-.18l1.08.64.64-1.08c.14-.24.45-.32.69-.18.24.14.32.45.18.69l-.9,1.51c-.07.12-.18.2-.31.23Z" class="cls-45"/></g><g><path d="M1394.88,271.89c-.12.03-.26.02-.38-.05l-1.95-1.16-1.16,1.95c-.14.24-.45.32-.69.18-.24-.14-.32-.45-.18-.69l1.42-2.38c.14-.24.45-.32.69-.18l2.38,1.42c.24.14.32.45.18.69-.07.12-.18.2-.31.23Z" class="cls-45"/><path d="M1394.57,273.57c-.12.03-.26.02-.38-.05l-1.08-.64-.64,1.08c-.14.24-.45.32-.69.18-.24-.14-.32-.45-.18-.69l.9-1.51c.14-.24.45-.32.69-.18l1.51.9c.24.14.32.45.18.69-.07.12-.18.2-.31.23Z" class="cls-45"/></g></g></g><g><path d="M1385.31,273.43c-.17.04-.35,0-.48-.14-.19-.2-.19-.52,0-.71l12.71-12.39c.2-.19.52-.19.71,0,.19.2.19.52,0,.71l-12.71,12.39c-.07.06-.14.11-.23.13Z" class="cls-45"/><g><g><path d="M1396.83,264.93s-.09.02-.13.02l-2.77-.03c-.28,0-.5-.23-.5-.51l.03-2.77c0-.28.23-.5.51-.5.28,0,.5.23.5.51l-.03,2.27,2.27.03c.28,0,.5.23.5.51,0,.23-.16.43-.38.48Z" class="cls-45"/><path d="M1397.45,263.33s-.09.02-.13.02l-1.76-.02c-.13,0-.26-.06-.35-.15s-.14-.22-.14-.36l.02-1.76c0-.28.23-.5.51-.5.28,0,.5.23.5.51l-.02,1.26,1.26.02c.28,0,.5.23.5.51,0,.23-.16.43-.38.48Z" class="cls-45"/></g><g><path d="M1389.24,272.34s-.09.02-.13.02c-.28,0-.5-.23-.5-.51l.03-2.27-2.27-.03c-.28,0-.5-.23-.5-.51,0-.28.23-.5.51-.5l2.77.03c.28,0,.5.23.5.51l-.03,2.77c0,.23-.16.43-.38.48Z" class="cls-45"/><path d="M1387.63,272.91s-.09.02-.13.02c-.28,0-.5-.23-.5-.51l.02-1.26-1.26-.02c-.28,0-.5-.23-.5-.51,0-.28.23-.5.51-.5l1.76.02c.13,0,.26.06.35.15.09.1.14.22.14.36l-.02,1.76c0,.23-.16.43-.38.48Z" class="cls-45"/></g></g></g><g><path d="M1400.21,269.63c-.08.02-.17.02-.26,0l-17.09-4.81c-.27-.08-.42-.35-.35-.62.08-.27.35-.42.62-.35l17.09,4.81c.27.08.42.35.35.62-.05.18-.19.31-.36.35Z" class="cls-45"/><g><g><path d="M1386.03,267.68c-.21.05-.45-.04-.56-.24-.14-.24-.05-.55.19-.68l1.98-1.11-1.11-1.98c-.14-.24-.05-.55.19-.68.24-.14.55-.05.68.19l1.36,2.42c.07.12.08.25.05.38-.04.13-.12.24-.24.3l-2.42,1.36s-.08.04-.12.05Z" class="cls-45"/><path d="M1384.73,266.57c-.21.05-.45-.04-.56-.24-.14-.24-.05-.55.19-.68l1.1-.62-.62-1.1c-.14-.24-.05-.55.19-.68.24-.14.55-.05.68.19l.86,1.54c.14.24.05.55-.19.68l-1.54.86s-.08.04-.12.05Z" class="cls-45"/></g><g><path d="M1396.24,270.55c-.21.05-.45-.04-.56-.24l-1.36-2.42c-.07-.12-.08-.25-.05-.38s.12-.24.24-.3l2.42-1.36c.24-.14.55-.05.68.19.14.24.05.55-.19.68l-1.98,1.11,1.11,1.98c.14.24.05.55-.19.68-.04.02-.08.04-.12.05Z" class="cls-45"/><path d="M1397.93,270.29c-.21.05-.45-.04-.56-.24l-.86-1.54c-.14-.24-.05-.55.19-.68l1.54-.86c.24-.14.55-.05.68.19s.05.55-.19.68l-1.1.62.62,1.1c.14.24.05.55-.19.68-.04.02-.08.04-.12.05Z" class="cls-45"/></g></g></g></g><g class="cls-72"><g><path d="M1677.2,208.44c-.32,0-.59-.26-.59-.59v-20.78c0-.32.26-.59.59-.59s.59.26.59.59v20.78c0,.32-.26.59-.59.59Z" class="cls-45"/><g><g><path d="M1677.2,194.13c-.15,0-.3-.06-.42-.17l-2.3-2.3c-.23-.23-.23-.6,0-.83.23-.23.6-.23.83,0l1.88,1.88,1.88-1.88c.23-.23.6-.23.83,0,.23.23.23.6,0,.83l-2.3,2.3c-.11.11-.26.17-.42.17Z" class="cls-45"/><path d="M1677.2,191.47c-.15,0-.3-.06-.42-.17l-1.46-1.46c-.23-.23-.23-.6,0-.83.23-.23.6-.23.83,0l1.04,1.04,1.04-1.04c.23-.23.6-.23.83,0,.23.23.23.6,0,.83l-1.46,1.46c-.11.11-.26.17-.42.17Z" class="cls-45"/></g><g><path d="M1679.49,204.25c-.15,0-.3-.06-.42-.17l-1.88-1.88-1.88,1.88c-.23.23-.6.23-.83,0-.23-.23-.23-.6,0-.83l2.3-2.3c.23-.23.6-.23.83,0l2.3,2.3c.23.23.23.6,0,.83-.11.11-.26.17-.42.17Z" class="cls-45"/><path d="M1678.66,206.08c-.15,0-.3-.06-.42-.17l-1.04-1.04-1.04,1.04c-.23.23-.6.23-.83,0-.23-.23-.23-.6,0-.83l1.46-1.46c.23-.23.6-.23.83,0l1.46,1.46c.23.23.23.6,0,.83-.11.11-.26.17-.42.17Z" class="cls-45"/></g></g></g><g><path d="M1668.2,203.24c-.2,0-.4-.11-.51-.29-.16-.28-.07-.64.21-.8l18-10.39c.28-.16.64-.07.8.21.16.28.07.64-.21.8l-18,10.39c-.09.05-.19.08-.29.08Z" class="cls-45"/><g><g><path d="M1683.72,196.93c-.05,0-.1,0-.15-.02l-3.14-.84c-.31-.08-.5-.41-.42-.72l.84-3.14c.08-.31.41-.5.72-.42.31.08.5.41.42.72l-.69,2.57,2.57.69c.31.08.5.41.42.72-.07.26-.31.44-.57.44Z" class="cls-45"/><path d="M1684.88,195.29c-.05,0-.1,0-.15-.02l-1.99-.53c-.15-.04-.28-.14-.36-.27s-.1-.3-.06-.45l.53-1.99c.08-.31.41-.5.72-.42.31.08.5.41.42.72l-.38,1.42,1.42.38c.31.08.5.41.42.72-.07.26-.31.44-.57.44Z" class="cls-45"/></g><g><path d="M1672.97,203.14c-.05,0-.1,0-.15-.02-.31-.08-.5-.41-.42-.72l.69-2.57-2.57-.69c-.31-.08-.5-.41-.42-.72.08-.31.41-.5.72-.42l3.14.84c.31.08.5.41.42.72l-.84,3.14c-.07.26-.31.44-.57.44Z" class="cls-45"/><path d="M1670.97,203.33c-.05,0-.1,0-.15-.02-.31-.08-.5-.41-.42-.72l.38-1.42-1.42-.38c-.31-.08-.5-.41-.42-.72.08-.31.41-.5.72-.42l1.99.53c.15.04.28.14.36.27.08.13.1.3.06.45l-.53,1.99c-.07.26-.31.44-.57.44Z" class="cls-45"/></g></g></g><g><path d="M1686.2,203.24c-.1,0-.2-.03-.29-.08l-18-10.39c-.28-.16-.38-.52-.21-.8.16-.28.52-.38.8-.21l18,10.39c.28.16.38.52.21.8-.11.19-.31.29-.51.29Z" class="cls-45"/><g><g><path d="M1670.67,196.93c-.26,0-.5-.17-.57-.44-.08-.31.1-.64.42-.72l2.57-.69-.69-2.57c-.08-.31.1-.64.42-.72.31-.08.64.1.72.42l.84,3.14c.04.15.02.31-.06.45-.08.13-.21.23-.36.27l-3.14.84c-.05.01-.1.02-.15.02Z" class="cls-45"/><path d="M1669.51,195.29c-.26,0-.5-.17-.57-.44-.08-.31.1-.64.42-.72l1.43-.38-.38-1.43c-.08-.31.1-.64.42-.72.31-.08.64.1.72.42l.53,1.99c.08.31-.1.64-.42.72l-1.99.53c-.05.01-.1.02-.15.02Z" class="cls-45"/></g><g><path d="M1681.43,203.14c-.26,0-.5-.17-.57-.44l-.84-3.14c-.04-.15-.02-.31.06-.45s.21-.23.36-.27l3.14-.84c.31-.08.64.1.72.42.08.31-.1.64-.42.72l-2.57.69.69,2.57c.08.31-.1.64-.42.72-.05.01-.1.02-.15.02Z" class="cls-45"/><path d="M1683.42,203.33c-.26,0-.5-.17-.57-.44l-.53-1.99c-.08-.31.1-.64.42-.72l1.99-.53c.31-.08.64.1.72.42s-.1.64-.42.72l-1.42.38.38,1.42c.08.31-.1.64-.42.72-.05.01-.1.02-.15.02Z" class="cls-45"/></g></g></g></g><g class="cls-72"><g><path d="M1336.83,456.15c-.29,0-.52-.23-.52-.52v-18.45c0-.29.23-.52.52-.52s.52.23.52.52v18.45c0,.29-.23.52-.52.52Z" class="cls-45"/><g><path d="M1336.83,441.04c-.09,0-.18-.02-.26-.07l-2.81-1.62c-.25-.14-.33-.46-.19-.71.14-.25.46-.33.71-.19l2.55,1.47,2.55-1.47c.25-.14.57-.06.71.19.14.25.06.57-.19.71l-2.81,1.62c-.08.05-.17.07-.26.07Z" class="cls-45"/><path d="M1339.64,454.44c-.09,0-.18-.02-.26-.07l-2.55-1.47-2.55,1.47c-.25.14-.57.06-.71-.19-.14-.25-.06-.57.19-.71l2.81-1.62c.16-.09.36-.09.52,0l2.81,1.62c.25.14.33.46.19.71-.1.17-.27.26-.45.26Z" class="cls-45"/></g></g><g><path d="M1344.82,451.54c-.09,0-.18-.02-.26-.07l-15.98-9.23c-.25-.14-.33-.46-.19-.71.14-.25.46-.33.71-.19l15.98,9.23c.25.14.33.46.19.71-.1.17-.27.26-.45.26Z" class="cls-45"/><g><path d="M1328.93,445.61c-.18,0-.36-.09-.45-.26-.14-.25-.06-.57.19-.71l2.55-1.47v-2.94c0-.29.23-.52.52-.52s.52.23.52.52v3.24c0,.19-.1.36-.26.45l-2.81,1.62c-.08.05-.17.07-.26.07Z" class="cls-45"/><path d="M1341.93,453.12c-.29,0-.52-.23-.52-.52v-3.24c0-.19.1-.36.26-.45l2.81-1.62c.25-.14.57-.06.71.19.14.25.06.57-.19.71l-2.55,1.47v2.94c0,.29-.23.52-.52.52Z" class="cls-45"/></g></g><g><path d="M1328.85,451.54c-.18,0-.36-.09-.45-.26-.14-.25-.06-.57.19-.71l15.98-9.23c.25-.14.57-.06.71.19.14.25.06.57-.19.71l-15.98,9.23c-.08.05-.17.07-.26.07Z" class="cls-45"/><g><path d="M1344.74,445.61c-.09,0-.18-.02-.26-.07l-2.81-1.62c-.16-.09-.26-.27-.26-.45v-3.24c0-.29.23-.52.52-.52h0c.29,0,.52.23.52.52v2.94s2.55,1.47,2.55,1.47c.25.14.33.46.19.71-.1.17-.27.26-.45.26Z" class="cls-45"/><path d="M1331.74,453.12h0c-.29,0-.52-.23-.52-.52v-2.94s-2.55-1.47-2.55-1.47c-.25-.14-.33-.46-.19-.71.14-.25.46-.33.71-.19l2.81,1.62c.16.09.26.27.26.45v3.24c0,.29-.23.52-.52.52Z" class="cls-45"/></g></g></g></g><path fill="url(#linear-gradient-7)" d="M778.1,473.98c-68.18-13.39-126.27-14.11-191.29,2.55-66.58,17.06-105.92,49.08-131.62,61.74l-.42.21s-.06.03-.09.04c-114.27,55.96-218.11-28.9-142.79-18.42.65.09,1.3.19,1.96.29-.54-.24-1.07-.46-1.6-.68-23.78-9.94-41.54-4.91-51.26-21.5h-.01c-.4-.7-.78-1.38-1.15-2.06,0-.01,0-.02-.01-.02-.05-.09-.1-.18-.15-.27-4.36-8.09-6.57-15.23-6.52-27.03.02-4.67,2.39-20.83,3.99-31.41-.59,13.52,4.69,24.42,15.99,32.58,1.01.33,18.99,17.18,72.56,12.73.1,0,.2-.01.3-.02,12.13-1.02,26.08-3.14,42.07-6.78h0c-.07-.15,111.25-35.56,209.84-31.88,55.32,2.07,127.66,12.48,180.2,29.93Z"/><g id="snowbank_left"><path d="M367.33,278.68c-6.97,27.3-40.3,56.4-61.54,80.79,42.1-53.62-125.53-9.97-156.71-10.86-28.47,3.11-56.71,5.06-81.06,3.63-25.07-1.35-57.05-7.35-67.95-29.07,0,0,0-86.7,0-86.7,98.18,68.49,205.22,52.19,309.81,35.77,15.52-1.23,57.5-12.57,57.45,6.44Z" class="cls-85"/><path d="M367.36,278.64c-1.14,9.26-8.36,68.54-13.47,93.45-1.9,9.21-3.45,13.13-4.15,6.84-2.36-21.17,2.52-73.71-2.32-63.61-4.84,10.1-11.14,34.82-11.14,34.82l.19-17.43c-.23-6.61-8.67,2.18-10.84,3.18,8.39-11.51,33.72-46.27,41.7-57.2h0s.03-.05.03-.05Z" class="cls-62"/><path fill="#dbe8ff" d="M367.36,278.64c-1.14,9.28-8.36,68.52-13.47,93.45-1.92-18.79,1.22-51.62,1.49-74.62.09-7.63-8.04-11.5-13.99-7.39C251.47,352.33,51.36,355.59,0,321.71v-78.44s.05-.05.07-.08v-6.72c120.93-31.65,184.4,54.34,277.87,40.78,24.14-2.86,60.47-12.27,81.92-8.02h0c5.16,1.47,7.8,4.43,7.47,9.45l.03-.04Z"/><g><path d="M148.65,347.57c-.11.47-.31,1.17-.57,2.04-1.77,5.78-6.82,18.88-13.62,20.08-5.19.92-11.21-5.12-12.5-2.97-1.29,2.15,5.59,30.35-6.03,33.54-2.78.76-5.42,1.35-7.21,2.51-1.04.68-1.79,1.57-2.11,2.8-.1.42-.16.88-.16,1.38,0,2.69-.3,16.59-1.53,27.72l-.02.17c-.23,2.05-.49,4.01-.78,5.78v.04c-.81,4.79-1.88,8.21-3.28,8.51-1.11.23-2.41-.59-3.72-2.38-4.29-5.87-8.7-22.16-7.05-46.2,2.15-31.39-6.04-25.28-9.91-32.38-3.88-7.11-15.34-5.4-31.03-13.39-4.97-2.53-9.1-4.4-12.39-5.8-6.01-2.55-10.66-4.33-11.05-4.77l41.35,6.68,81.61-3.36Z" class="cls-85"/><path d="M149.65,346.57c-.11.47-.31,1.17-.57,2.04-1.77,5.78-6.82,18.88-13.62,20.08-5.19.92-11.21-5.12-12.5-2.97-1.29,2.15,5.59,30.35-6.03,33.54-14.37,3.93-7.22,2.24-11.03,34.58-.99,8.84-2.5,19.16-7.78,11.95-4.29-5.87-8.7-22.16-7.05-46.2,2.15-31.39-6.04-25.28-9.91-32.38-2.6-4.77-9-5.8-13.76-7.09-22.34-6.06-20.95-10.66-32.42-16.41-6.5-3.27-14.11-4.38-19.89-8.8-4-3.06-6.87-9.61-15.09-13.2v-2.68c5.2,1.08,10.01,2,11.46,2.25,12.23,2.21,22.8,9.7,32.53,17.43,8.69,6.93-1.15,5.69,25.56,6.22,12.56.26,25.12.51,37.68.77l42.42.87Z" class="cls-62"/><path fill="#e8f0ff" d="M268.12,323.04c-14.77,6.97-83.5,25.09-118.47,28.93-1.77,5.78-7.39,15.53-14.19,16.73-5.19.92-11.21-5.12-12.5-2.97-1.29,2.15,5.59,30.35-6.03,33.54-2.78.76-5.42,1.35-7.21,2.51.53-2.42,5.95-9.89,3.05-22.48-1.36-5.93-10.33-4.02-9.25,1.97,1.79,9.96,3.03,10.63,4.09,23.31,1.06,12.91.34,14.02-1.69,29.1l-.02.17-.78,5.78v.04s-.44,3.22-.44,3.22c-.29,3.59-2.73,8.51-5.93,6.85-6.1-36.34-.51-52.32-2.45-67.9-.95-7.65-3.88-15.37-9.74-20.36-4.7-4.01-8.74-5.2-37.33-16.95-3.89-1.6-7.51-3.35-11.66-3.94-18.42-2.61-23.28-13.91-31.31-18.44-1.96-1.1-4.09-1.83-6.26-2.42v-1.96c8.82-1.22,31.7,1.74,43.51,8.29,4.62,2.56,9.62,4.58,14.41,6.83,11.18,3.32,23.12,2.34,34.74,1.4s32.6-8.94,43.14-3.96c28.28,13.37,107.53-2.16,132.32-7.29Z"/></g></g><g id="webpage" class="cls-4"><g><path d="M159.46,147.51c-22.36-6.18-47.48-2.73-78.22,20.17-.04.03-.06.05-.06.05-21.12-21.62-45.04-54.83-51.93-78.9,30.29-13.66,90.86-13.3,121.87,3.26,6.11,9.98,7.72,28.2,8.18,40.92l-19.8-.79,19.59,3.3.48.08c.14,7.01-.1,11.83-.11,11.9Z" class="cls-51"/><path id="path555" d="M43.9,99.47c-2.24-2.36-.99-6.38,2.27-7.02,54.34-11.03,85.16.09,94.44,1.95,1.46.28,2.51,1.47,2.61,2.96h0c.09,2.05-1.62,3.68-3.65,3.4-12.86-1.8-50.02-10.47-91.43-.16-1.48.35-3.06.05-4.2-1.04,0,0,.01-.06-.05-.07Z" class="cls-52"/><path id="path557" d="M46.13,104.87c39.19-7.34,83.4-.82,83.4-.82,0,0-7.92,6.71-4.89,18.2-18.56-2.11-59.16,11.24-59.16,11.24l-19.36-28.62Z" class="cls-52"/><path id="path561" d="M101.7,127.99c-14.8,3.01-32.68,8.86-32.68,8.86l14.2,17.27s13.11-7.47,27.18-12.49l-8.69-13.64Z" class="cls-52"/></g><path id="path559" d="M112.69,140.21c5.77-2.32,11.99-4.31,18.11-5.25-4.44-3.83-5.94-9.87-5.94-9.87-7.64,0-13.46.17-20.28,2.38l8.11,12.75Z" class="cls-52"/><path id="path567" d="M139.51,132.23s22.47.38,33.08,1.76c10.61,1.38,8.38-14.79-1.63-13.95-2.11-12.45-21.84-20.39-29.79-8.8-14.06-5.56-21,19.95-1.66,20.98Z" class="cls-51"/><g id="g571" class="cls-82"><path id="path569" d="M139.51,132.23l7.13-.1c2.38.05,4.78.04,7.16.1,4.77.11,9.5.4,14.29.76,1.18.12,2.35.24,3.59.36s2.28.29,3.38.14,2.06-.69,2.8-1.45c.31-.39.63-.84.84-1.38.1-.24.21-.53.31-.77.04-.25.15-.54.18-.79.28-2.22-.49-4.6-1.92-6.33-.75-.87-1.71-1.58-2.77-2.06-1.06-.48-2.29-.67-3.43-.59v-.06c1.22-.13,2.39.05,3.52.48s2.09,1.14,2.9,2.02c1.62,1.76,2.44,4.21,2.19,6.62-.12,1.18-.55,2.37-1.38,3.24-.83.88-1.92,1.46-3.09,1.66-1.16.2-2.4.07-3.57-.11-1.18-.12-2.35-.24-3.53-.36-4.72-.41-9.47-.64-14.21-.87-4.94-.2-9.64-.35-14.39-.52Z" class="cls-60"/></g><path d="M158,114.84c-1.12-.6-1.39-3.59-2.38-2.81s.99,6.21-.28,6.25.34-5.5-.71-6.21c-1.05-.71-1.11,2.3-2.18,2.97s-3.8-.6-3.62.66,5.87,2.25,5.27,3.37-4.6-3.04-5.74-2.49,1.44,2.11,1.48,3.37-2.42,3-1.24,3.47,4.88-3.96,5.55-2.88-4.93,2.46-5.03,3.72,2.54-.19,3.66.41,1.39,3.59,2.38,2.81-.99-6.21.28-6.25-.34,5.5.71,6.21,1.11-2.3,2.18-2.97,3.8.6,3.62-.66c-.18-1.25-5.87-2.25-5.27-3.37s4.6,3.04,5.74,2.49-1.44-2.11-1.48-3.37,2.42-3,1.24-3.47-4.88,3.96-5.55,2.88c-.67-1.07,4.86-2.34,5.01-3.6.07-.6-2.53.07-3.65-.53Z" class="cls-45"/><path d="M159.46,147.51c-22.36-6.18-47.48-2.73-78.22,20.17,1.11-1.05,19.41-17.94,45.46-22.87,15.28-3.26,32.28,1.93,32.28,1.93l.34-4.94.24-6.19c.14,7.01-.1,11.83-.11,11.9Z" class="cls-51"/></g><g id="webpage-2" class="cls-4" data-name="webpage"><path d="M456.67,126.46c-.06.21-.12.42-.19.63-4.32,14.35-15.34,29.65-29.21,43.23-8.27,8.11-17.56,15.6-27.04,21.91l-9.44-8.51,5.39,10.49.21.41c-11.19,7.22-21.09,11.91-31.33,14.86-11.44-2.95-24.61-15.23-32.89-24.03t-.02-.02c-4.97-5.28-8.17-9.31-8.17-9.31,21.14-11.08,43.56-34.56,47.36-68.56,25.68-.11,64.99,6.72,85.33,18.9Z" class="cls-51"/><path id="path577" d="M440.31,128.42c-13.68-4.03-43.32-10.79-56.47-12.63-1.93-.26-3.77,1.01-4.26,2.88v.08c-.55,2.1.81,4.24,2.99,4.71,11.42,2.26,43.42,8.71,54.76,13.42,2.05.86,4.45.1,5.63-1.89.07-.08.07-.16.14-.24,1.23-2.38-.05-5.51-2.78-6.33Z" class="cls-52"/><path id="path579" d="M436.01,141.48c-9.42-3.46-53.88-15.17-57.18-15.26-1.27,4.14-9.42,20.51-10.89,21.6,4.21,2.26,26,10.82,28.19,12.75l1.55-2.17c4.92-7.05,13.25-10.95,21.88-10.28,5.16.36,9.87.9,10.36,1.41,2.57-2.92,6.08-8.04,6.08-8.04Z" class="cls-52"/><path id="path581" d="M367.24,150.01c-2.08,3.43-19.93,21.71-29.05,27.66,3.99,6.1,23.55,20.47,25.38,21.58,10.01-2.86,21.56-10.56,21.56-10.56l-5.46-5.01,13.28-20.14-25.71-13.52Z" class="cls-52"/><g id="g585" class="cls-82"><path d="M396.39,194.62c-11.19,7.22-21.09,11.91-31.33,14.86-11.44-2.95-24.61-15.23-32.89-24.03t-.02-.02c-2.76-2.96-5.44-6-8.01-9.17l.07-.08c2.83,3.42,5.88,6.74,8.99,9.91,3.12,3.17,6.38,6.26,9.71,9.18,3.34,2.93,6.89,5.69,10.57,8.13,3.72,2.34,7.64,4.44,11.81,5.56,10.01-3.02,19.54-7.82,28.49-13.26.8-.49,1.61-.98,2.4-1.49l.21.41Z" class="cls-60"/><path d="M456.48,127.09c-4.32,14.35-15.34,29.65-29.21,43.23-.11-.06-.24-.14-.39-.23,5.17-4.99,10.04-10.3,14.46-15.94,3.26-4.19,6.28-8.51,8.9-13.12,2.52-4.44,4.68-9.06,6.24-13.94Z" class="cls-60"/></g><g id="g595"><path id="path587" d="M431.24,176.01c6.29-5.99,9.32-14.84,1.93-19.03-5.89-3.3-16.72,2.29-21.41,8.1" style="isolation:isolate" fill="none" stroke="#eee" stroke-linecap="round" stroke-linejoin="round" stroke-width="1.53" opacity=".15"/><path id="path589" d="M406.11,160.7c.71-.89,1.92-1.19,2.95-.65,1.35.68,3.41,1.77,5.88,3.15l-2.74,2.78,5.28-1.33c6.93,4,15.85,9.25,21.34,12.34,1.28.76,1.61,2.42.69,3.55-11.23,13.89-27.5,18.45-29.7,18.82-1.14.23-16.55-13.03-18.93-15.48,3.2-5.18,7.29-13.1,15.23-23.18Z" class="cls-51"/><g id="g593" class="cls-82"><path id="path591" d="M391.94,184.95c3.66,3.29,7.31,6.42,11.12,9.55,1.86,1.57,3.8,3.13,5.81,4.45.24.14.48.35.87.4.31-.02.61-.12.91-.21.61-.12,1.21-.31,1.73-.49,1.13-.38,2.33-.76,3.45-1.22,2.24-.91,4.48-1.89,6.63-3.1,1.12-.53,2.15-1.21,3.18-1.81,1.03-.68,2.06-1.28,3.01-2.03,3.96-2.86,7.66-6.15,10.71-9.95l-.08-.07c-.86.9-1.65,1.79-2.52,2.61l-1.3,1.23c-.43.41-.87.82-1.38,1.24-.95.75-1.82,1.57-2.84,2.33-.52.34-.95.75-1.46,1.09l-1.47,1.01c-.52.34-1.03.68-1.55,1.02l-1.55.94c-1.03.6-2.07,1.2-3.19,1.73-2.15,1.13-4.31,2.11-6.55,3.02-1.12.45-2.25.83-3.37,1.21-.6.19-1.13.38-1.73.49-.15,0-.3.1-.45.11l-.38.02h.15s-.08,0-.08,0c0,0-.08-.07-.16-.07-.08-.07-.24-.14-.32-.21-2-1.25-3.87-2.89-5.8-4.3-1.94-1.48-9.45-7.51-11.39-9Z" class="cls-60"/></g></g><g><g><path d="M404.89,187.23c-.22-.25-.19-.63.06-.85l16.02-14.04c.25-.22.63-.19.85.06s.19.63-.06.85l-16.02,14.04c-.25.22-.63.19-.85-.06Z" class="cls-45"/><g><g><path d="M415.91,177.57c-.1-.12-.16-.27-.15-.44l.22-3.32c.02-.33.31-.58.64-.56.33.02.58.31.56.64l-.18,2.72,2.72.18c.33.02.58.31.56.64-.02.33-.31.58-.64.56l-3.32-.22c-.17-.01-.31-.09-.41-.2Z" class="cls-45"/><path d="M417.97,175.77c-.1-.12-.16-.27-.15-.44l.14-2.11c.02-.33.31-.58.64-.56.33.02.58.31.56.64l-.1,1.51,1.51.1c.33.02.58.31.56.64-.02.33-.31.58-.64.56l-2.11-.14c-.17-.01-.31-.09-.41-.2Z" class="cls-45"/></g><g><path d="M409.67,186.18c-.1-.12-.16-.27-.15-.44l.18-2.72-2.72-.18c-.33-.02-.58-.31-.56-.64.02-.33.31-.58.64-.56l3.32.22c.33.02.58.31.56.64l-.22,3.32c-.02.33-.31.58-.64.56-.17-.01-.31-.09-.41-.2Z" class="cls-45"/><path d="M407.7,186.76c-.1-.12-.16-.27-.15-.44l.1-1.51-1.51-.1c-.33-.02-.58-.31-.56-.64.02-.33.31-.58.64-.56l2.11.14c.33.02.58.31.56.64l-.14,2.11c-.02.33-.31.58-.64.56-.17-.01-.31-.09-.41-.2Z" class="cls-45"/></g></g></g><g><path d="M402.82,176.79c-.14-.16-.19-.38-.12-.59.11-.31.45-.48.76-.38l20.17,6.85c.31.11.48.45.38.76-.11.31-.45.48-.76.38l-20.17-6.85c-.1-.04-.19-.1-.26-.17Z" class="cls-45"/><g><g><path d="M418.17,184.49s-.06-.08-.09-.13l-1.47-2.99c-.15-.3-.02-.66.27-.81l2.99-1.47c.3-.15.66-.02.81.27.15.3.02.66-.27.81l-2.45,1.21,1.21,2.45c.15.3.02.66-.27.81-.25.12-.54.06-.72-.14Z" class="cls-45"/><path d="M420.21,184.27s-.06-.08-.09-.13l-.93-1.9c-.07-.14-.08-.31-.03-.46s.16-.28.3-.35l1.9-.93c.3-.15.66-.02.81.27.15.3.02.66-.27.81l-1.36.67.67,1.36c.15.3.02.66-.27.81-.25.12-.54.06-.72-.14Z" class="cls-45"/></g><g><path d="M406.12,180.39s-.06-.08-.09-.13c-.15-.3-.02-.66.27-.81l2.45-1.21-1.21-2.45c-.15-.3-.02-.66.27-.81.3-.15.66-.02.81.27l1.47,2.99c.15.3.02.66-.27.81l-2.99,1.47c-.25.12-.54.06-.72-.14Z" class="cls-45"/><path d="M404.63,178.98s-.06-.08-.09-.13c-.15-.3-.02-.66.27-.81l1.36-.67-.67-1.36c-.15-.3-.02-.66.27-.81.3-.15.66-.02.81.27l.93,1.9c.07.14.08.31.03.46-.05.15-.16.28-.3.35l-1.9.93c-.25.12-.54.06-.72-.14Z" class="cls-45"/></g></g></g><g><path d="M414.97,190.66c-.07-.08-.12-.17-.14-.28l-4.15-20.89c-.06-.33.15-.64.47-.71.33-.06.64.15.71.47l4.15,20.89c.06.33-.15.64-.47.71-.22.04-.43-.04-.57-.19Z" class="cls-45"/><g><g><path d="M409.35,174.43c-.18-.2-.2-.5-.05-.73.18-.28.56-.35.83-.17l2.27,1.52,1.52-2.27c.18-.28.56-.35.83-.17.28.19.35.56.17.83l-1.85,2.77c-.09.13-.23.22-.38.26-.16.03-.32,0-.45-.09l-2.77-1.85s-.08-.06-.12-.1Z" class="cls-45"/><path d="M409.83,172.43c-.18-.2-.2-.5-.05-.73.18-.28.56-.35.83-.17l1.26.84.84-1.26c.18-.28.56-.35.83-.17.28.18.35.56.17.83l-1.17,1.76c-.18.28-.56.35-.83.17l-1.76-1.17s-.08-.07-.12-.1Z" class="cls-45"/></g><g><path d="M411.83,186.91c-.18-.2-.2-.5-.05-.73l1.85-2.77c.09-.13.23-.22.38-.26s.32,0,.45.09l2.77,1.85c.28.18.35.56.17.83-.18.28-.56.35-.83.17l-2.27-1.52-1.51,2.27c-.18.28-.56.35-.83.17-.04-.03-.08-.07-.12-.1Z" class="cls-45"/><path d="M413.04,188.58c-.18-.2-.2-.5-.05-.73l1.17-1.76c.18-.28.56-.35.83-.17l1.76,1.17c.28.19.35.56.17.83s-.56.35-.83.17l-1.26-.84-.84,1.26c-.18.28-.56.35-.83.17-.04-.03-.08-.07-.12-.1Z" class="cls-45"/></g></g></g></g></g><g id="webpage-3" class="cls-4" data-name="webpage"><path id="path649" d="M1537.93,169.03l-34.33-6.81c-2.07-.49-4.14.67-4.75,2.74l-5.9,17.75c-.43,1.64.49,3.34,2.07,3.83l32.75,10.76c1.64.55,3.41-.3,3.96-1.88l8.4-22.18c.67-1.76-.37-3.71-2.19-4.19ZM1508.23,182.46l3.77-10.51,8.52,8.93-12.3,1.58Z" class="cls-51"/><g id="g653" class="cls-82"><path id="path651" d="M1540.12,173.29l-8.34,22.12c-.43,1.28-1.7,2.19-3.04,2.19-.67,0-1.28-.24-1.95-.49l-31.83-10.51v-.06l32.93,10.27c.24.06.55.12.79.12,1.1,0,2.19-.73,2.56-1.76.97-2.43,5.78-14.65,5.78-14.65l3.1-7.23Z" class="cls-60"/></g><path id="path655" d="M1605.86,135.97c-23.74-6.75-60.01-4.19-89.05,2.19,1.95,22.55-.97,39.81-7.18,53.3l17.35,5.65-18.93-2.37c-3.96,7.54-9.01,13.92-14.91,19.33,0,0,31.35,21.64,50.7,21.82,29.89-17.32,63.55-65.58,62.02-99.92Z" class="cls-51"/><path id="path657" d="M1526.61,143.14c14.67-1.58,44.8-3.04,63.97-.73,2.92.36,4.99,2.98,4.57,5.9v.18c-.37,2.92-3.1,4.98-6.03,4.5-13.57-2.19-42.91-4.38-63.24-3.1-1.22.06-2.13-.79-2.5-1.94,0-.06-.06.06-.12-.24-.43-2.25,1.16-4.32,3.35-4.56Z" class="cls-52"/><path id="path659" d="M1591.8,159.37c-10.65-2.61-46.93-5.9-67.87-6.26,0,3.22-.43,5.47-.79,7.9,5.6.67,17.16,2.49,28.42,4.5-2.98,8.33-9.07,22.73-10.53,25.65,1.22.61,25.56,8.69,27.76,9.54,8.64-9.36,15.34-22.43,17.83-28.38q.06,0,.12.06c2.5-4.92,3.41-8.14,5.05-13.01Z" class="cls-52"/><path id="path661" d="M1513.22,199.24c5.48,2.31,11.26,4.8,19.72,7.72,1.58-2.86,5.23-7.96,6.7-11.55,8.76,3.04,23.74,8.14,26.9,9.48-3.04,3.46-19.05,20.48-24.16,22.91-8.34-.61-36.7-14.77-38.1-15.8,1.03-1.03,8.95-12.76,8.95-12.76Z" class="cls-52"/><g id="g665" class="cls-82"><path id="path663" d="M1605.86,135.97c.18,5.11-.3,10.15-1.34,15.13-1.03,4.98-2.5,9.85-4.26,14.65-3.59,9.54-8.4,18.54-13.94,27.11-5.54,8.51-11.87,16.53-18.93,23.89-3.53,3.65-7.24,7.17-11.14,10.39-3.9,3.22-8.1,6.2-12.48,8.75-2.31,0-4.63-.36-6.94-.85-2.25-.49-4.5-1.09-6.76-1.82-4.44-1.46-8.7-3.28-12.9-5.29-4.2-2.01-8.28-4.19-12.3-6.5-4.02-2.31-7.97-4.74-11.81-7.35l.06-.06c3.9,2.55,7.85,4.92,11.93,7.23,4.02,2.25,8.16,4.38,12.36,6.38,4.2,2.01,8.46,3.77,12.9,5.23,2.19.73,4.44,1.34,6.7,1.76,2.25.49,4.57.79,6.82.79l-.18.06c4.38-2.55,8.46-5.53,12.36-8.81,3.9-3.22,7.55-6.75,11.08-10.39,7-7.29,13.39-15.26,18.93-23.76,5.54-8.51,10.35-17.44,14-26.92.43-1.15.91-2.37,1.28-3.59.43-1.22.79-2.37,1.16-3.65l.55-1.82c.18-.61.3-1.22.49-1.82l.49-1.82.43-1.88c.97-4.86,1.58-9.91,1.46-15.01Z" class="cls-60"/></g><g><g><g><path d="M1516.35,170.57l-2.67,6.63c-.07.17-.32.11-.31-.07l.31-7.09s.02-.08.05-.11l1.69-1.65c.09-.08.23-.05.27.07l.67,2.12s0,.07,0,.11Z" class="cls-45"/><path d="M1510.36,185.41l2.63-6.49c.07-.17.32-.11.31.07l-.38,6.86s-.02.07-.04.1l-1.59,1.74c-.08.09-.24.06-.28-.06l-.66-2.12s0-.07,0-.11Z" class="cls-45"/></g><g><path d="M1508.24,171.7l4.61,5.59c.12.14-.05.34-.21.24l-6.22-3.76s-.07-.06-.07-.11l-.48-2.27c-.02-.11.08-.22.19-.19l2.09.44s.07.03.09.06Z" class="cls-45"/><path d="M1518.21,183.74l-4.25-5.07c-.12-.14.06-.34.22-.24l5.63,3.81s.06.06.07.1l.44,1.78c.03.12-.08.23-.2.19l-1.81-.53s-.06-.03-.08-.05Z" class="cls-45"/></g><g><path d="M1505.26,178.7l7.05-.64c.18-.02.25.24.08.31l-6.45,2.83s-.07.02-.1.01l-2.3-.49c-.13-.03-.17-.18-.08-.27l1.7-1.71s.06-.04.1-.05Z" class="cls-45"/><path d="M1521,177.06l-6.75.84c-.18.02-.26-.23-.09-.31l6.19-2.85s.07-.02.1-.01l2.09.44c.13.03.17.18.08.27l-1.53,1.57s-.06.04-.1.05Z" class="cls-45"/></g></g><g><g><path d="M1512.83,173.13l.39,3.98c.02.17-.21.25-.3.1l-2.04-3.31s-.03-.09-.02-.13l.45-1.6c.03-.11.16-.16.26-.08l1.2.93s.06.07.06.11Z" class="cls-45"/><path d="M1513.95,182.9l-.39-4.01c-.02-.17.21-.25.3-.1l2.2,3.38s.03.09.02.13l-.45,1.61c-.03.11-.16.15-.25.09l-1.36-.98s-.06-.07-.07-.12Z" class="cls-45"/></g><g><path d="M1509.1,176.06l3.47,1.55c.16.07.11.32-.07.31l-3.84-.15s-.07-.02-.1-.04l-1.1-.95c-.1-.08-.06-.24.06-.28l1.47-.45s.08,0,.11,0Z" class="cls-45"/><path d="M1517.82,180.22l-3.57-1.88c-.15-.08-.09-.31.08-.31l4.03.03s.09.02.12.06l1.1,1.26c.07.09.04.22-.06.26l-1.56.59s-.09.01-.13,0Z" class="cls-45"/></g><g><path d="M1509.24,180.65l3.35-2.17c.14-.09.32.07.23.22l-2.1,3.45s-.06.07-.11.07l-1.62.34c-.12.02-.22-.08-.19-.2l.37-1.61s.03-.08.07-.1Z" class="cls-45"/><path d="M1517.5,175.26l-3.38,2.2c-.14.09-.31-.07-.23-.22l1.99-3.51s.06-.07.11-.08l1.64-.34c.11-.02.21.07.19.18l-.24,1.65s-.03.09-.07.11Z" class="cls-45"/></g></g></g></g><g id="snowbank_right"><path d="M1664.42,292.51c-132.42,54.47-326.5,148.44-434.2,204.1,246.45,69,333.84-145.28,472.91-85.58h-.03c128.33,38.46,71.63,9.84,94.16,72.69,1.55,1.77,2.74.39,3.68-2.9,4.45-12.48,2.02-61.27,6.89-51.95.94,1.18.23.92,2.01,7.58,2.26,8.49,7.05-5.29,5.79,32.24-1.26,37.52,3.52,59.25,6.29,58.06,2.97-2.52,3.22-46.47,3.27-50.46,0-5.43,2.65-6.37,5.54-8,6.79-3.81,2.77-37.52,3.52-40.09.76-2.57,4.27,4.65,7.3,3.55,3.61-1.19,7.09-22.77,8.64-34.28.38-2.82,2.09-5.28,4.59-6.66,17.37-9.62,33.54-20.29,50.18-32.16h.01c4.91-3.52,9.95-7.21,15.11-11.09-.02-13.17-206.45-75.49-255.66-55.06Z" class="cls-53"/><g><path d="M1073.57,477.8c4.81-.75,9.65-1.19,14.51-1.37-4.76.49-9.59.94-14.51,1.37Z" class="cls-62"/><path d="M1920.08,284.78l-.08,68.66c-15.77,8.59-64.52,47.98-74.58,50.71-45.65,12.36-86.48,20.19-140.15,3.47-26.93-8.4-40.65-37.33-104.84-9.02-21.91,10.96-50.47,27.18-82.02,50-72.54,52.45-187.13,87.57-257.39,69.72-56.8-11.4-112.33-41.13-165.43-41.97-2.51-.04-5.02-.02-7.51.08,84.98-8.69,145.51-26.71,202.66-52.92,48.08-22.04,52.95-40.71,103.49-58.8,8.47-3.03,17.99-6.38,27.51-7.92,3.82-.63,7.64-.96,11.39-.86.57.01,1.13.04,1.69.07,25.4,1.16,34.34-8.16,86.89-33.72,51.42-31.02,126.62-73.46,190.55-77.49,49.35-3.09,76.7,20.82,166.51,33.18,13.63,1.83,27.51,7.53,41.31,6.81Z" class="cls-62"/><path d="M1501.75,330.9c-8.02,16.13-5.14,35.55-9.26,53.15-5.73,24.51-25.07,44.17-47.42,55.76-22.35,11.59-47.62,16.16-72.57,19.51-17.27,2.32-59.5,3.35-58.92.29,31.68-3.46,41.99-9.25,62.94-14.29,26.31-6.34,51.11-18.83,71.86-36.2,6.1-5.11,12.23-11.35,13.02-19.26.88-8.77-5.13-16.79-11.97-22.35-6.84-5.55-14.87-9.75-20.7-16.35-4.48-5.07-7.39-11.45-8.45-18.12,4.4-.71,8.86-1.05,13.38-.85,11.37.52,19.69,3.73,30.17,4.79,4.31.44,8.97.51,14.37-.11,6.56-.76,14.19-2.54,23.55-5.97Z" style="isolation:isolate" fill="url(#linear-gradient-8)" opacity=".15"/><path d="M1846.41,332.48c-27.33,15.2-58.93,20.66-90.03,23.95-38.85,4.12-78.01,5.25-116.7,10.67-38.69,5.43-77.41,15.41-110.74,35.79,26.29-21.74,60.2-31.67,93.42-39.43,33.22-7.76,67.38-14.09,97.41-30.27,1.64-.89,3.36-1.89,4.17-3.56,2.49-5.08-4.87-9.46-6.34-14.91-1.08-4.01,1.37-8.3,4.8-10.65,3.42-2.35,7.63-3.19,11.7-3.98,35.66-6.89,42-7.38,48.57-12.3,5.13-3.85,8.38-11.03,5.71-16.86-1.18-2.58-3.34-4.58-5.61-6.29-13.18-9.92-30.03-11.47-45.77-14.08-6.36-1.06-16.76-2.17-24.74-5.77,48.43-3.03,75.61,19.94,160.91,32.39,4.35,20.21,4.07,38.18-26.76,55.3Z" style="isolation:isolate" fill="url(#linear-gradient-9)" opacity=".15"/><path fill="url(#radial-gradient-2)" d="M1448,402.85c-7.21,8.55-17.64,13.61-27.88,18.1-32.29,14.19-66.34,25.35-101.51,28.04-19.22,1.47-38.54.39-57.81.49-34.57.17-44.38,20.58-78.1,28.21-20.81,4.71-66.23-5.63-87.11-1.34-2.51-.04-5.02-.02-7.51.08,84.98-8.69,145.51-26.71,202.66-52.92,48.08-22.04,52.95-40.71,103.49-58.8,8.47-3.03,17.99-6.38,27.51-7.92,3.82-.63,7.64-.96,11.39-.86,6.8,4.96,14.98,8.71,19.35,15.84,5.84,9.54,2.72,22.52-4.48,31.08Z" opacity=".6"/></g><path d="M1845.42,404.15c-1.7,11.33.31,25.46-2.87,26.61-3.03,1.1-6.54-6.12-7.3-3.55-.75,2.57,3.27,36.28-3.52,40.09-2.89,1.63-5.54,2.57-5.54,8,0,2.63-.11,14.3-.56,25.75-.46,12.17-1.28,24.1-2.71,24.71-2.77,1.19-7.55-20.54-6.29-58.06,1.26-37.53-3.53-23.75-5.79-32.24-1.78-6.66-1.07-6.4-2.01-7.58-.26-.33-.65-.77-1.25-1.5-2.21-2.67-1.94,40.42-5.64,53.45-.94,3.29-2.13,4.67-3.68,2.9-7.12-8.14-4.53-24.05-4.58-40.88.06-3.71-8.63-13.85-27.65-16.41-24.87-3.35-53.33-12.54-66.82-20.11l57,8.73,75.31-6.07s14.64-8.78,13.9-3.84Z" class="cls-62"/><path fill="#e3f2ff" d="M1853.24,400.11c-1.7,11.33-7.51,29.5-10.69,30.65-3.03,1.1-6.54-6.12-7.3-3.55-.75,2.57,3.27,36.28-3.52,40.09-2.89,1.63-5.54,2.57-5.54,8,0,2.63-.11,14.3-.56,25.75-4.43-8.58-6.2-26.48-3.89-31.28,1.87-3.89,3.33-3.66,3.26-10.32-.16-15.64.5-20.39-3.14-22.63-3.02-1.86-4.83-.27-5.63-7.6-.74-6.76-8.05-2.11-8.65-2.84-2.21-2.67-1.94,40.42-5.64,53.45-.9-.08-1.79-.23-2.53-.65-6.47-3.63-1.13-20.17-3.43-34.72-.76-4.81-3.41-9.12-7.33-12.01-11.61-8.54-23.81-11.68-31.64-12.58-15.37-1.77-30.75-4.78-57.8-14.54,78.05,4.2,91.1-2.94,93.61-3.7,8.35-2.54,14.82.29,20.55,3.03,5.23,2.51,11.9.47,16.76-1.29,4.53-1.63,8.45-8.04,17.76-3.05,3.24,1.28,4.27.34,5.34-.2Z"/></g></g><g id="right_planet" class="cls-4"><path fill="url(#linear-gradient-10)" d="M1836.97,0c18.33,18.26,29.67,43.51,29.67,71.41,0,55.7-45.22,100.86-101.01,100.86s-101.01-45.16-101.01-100.86c0-27.9,11.34-53.15,29.67-71.41h142.68Z" opacity=".3"/><path fill="url(#linear-gradient-11)" d="M1866.64,71.41c0,55.72-47.06.73-89.31,37.35-44.27,38.37-112.71,18.37-112.71-37.35,0-27.91,11.33-53.15,29.66-71.41h142.7c18.33,18.26,29.66,43.5,29.66,71.41Z" opacity=".3"/><path fill="url(#linear-gradient-12)" d="M1866.64,71.51c0,55.72-10.9-46.34-66.81-43.04-75.64,4.47-102.61,74.3-120.01,26.46-6.77-18.59.02-38.9,15.14-54.93h141.92c18.39,18.27,29.76,43.55,29.76,71.51Z" opacity=".3"/></g><path fill="url(#radial-gradient-3)" d="M1836.97,0c18.33,18.26,29.67,43.51,29.67,71.41,0,55.7-45.22,100.86-101.01,100.86s-101.01-45.16-101.01-100.86c0-27.9,11.34-53.15,29.67-71.41h142.68Z" opacity=".7"/><path d="M334.78,539.72c-6.17-.98-36.01-13.61-32.5-5.94,9.4,15.8,65.31,24.01,99.64,17.57,43.82-8.22,77.7-41.08,116.66-60.76-37.16,16.21-82.64,50.11-125.27,52.68-22.88,1.38-44.05-1.25-58.53-3.55Z" style="isolation:isolate" fill="url(#linear-gradient-13)" opacity=".15"/><path d="M448.8,521.68c-21.31,15.58-54.74-11.29-62.96-3.94-5.7,7.2-16,10.37-24.77,7.63.14,5.12-24.08,7.17-29.27,9.42,2.42-7.01-1.48-15.58-8.36-18.35,2.58-3.29,7.22-4.77.77-7.9-8.55-3.59-12.75,2.3-21.6-.45.96-.04,1.07-10.03.22-10.48-4.27-.27-11.83,3.82-16.48,7.89,4.47-6.39,6.53-19.19,13.2-23.59,15.02-4.39,31.75-1.66,47.3-1.59,8.41.51,16.86,1.3,25.25.56,12.79-.69,27.19-7.96,38.49,1.18,29.38,19.32,15.65,6.67,9.34,20.94-.16,2.22,1.17,4.33,2.87,5.76,6.19,6.47,38.02,2.6,21.14,16.6" style="isolation:isolate" fill="url(#linear-gradient-14)" opacity=".25"/><g id="notes"><path id="path671" d="M774.23,507.91c-22.7-1.7-39,4-63.3,20-38.3-12.7-45-32.9-45-32.9,30.3-26.1,91.1-18.4,105.2-13.5-.1,11.9,3.1,26.4,3.1,26.4Z" class="cls-53"/><g id="g677"><path id="path673" d="M1220.73,459.21c.8-.6,1.9-.5,2.5.3h0c6.2,8.1,21.2,25.6,27.6,23,.9-.4,2,0,2.4.9.2.4.2.8.1,1.2-3.4,13.4-18.8,18.7-32.1,21-16.8,2.9-34.3,3.1-47.3.3-.3-.1-.7-.2-.9-.5-6.9-6.7-9.6-18.7-10.5-23.6-.2-1,.5-2,1.5-2.1,21.6,0,39.3-7.5,56.7-20.5Z" class="cls-53"/><path id="path675" fill="#e6f3ff" d="M1204.53,507.59c22.3-1.4,38.1-8.68,46.8-28.48,6.9,7.1-1.06,25.79-46.8,28.48Z"/></g><path d="M1253.33,484.61c-3.07,12.12-23.59,19.44-35.87,22.08-20.75-5.81-33.26-11.6-53.12-17.29-.53-2.05-1.58-6.3-1.82-7.59-.2-1,.5-2,1.5-2.1,21.6,0,39.3-7.5,56.7-20.5.8-.6,1.9-.5,2.5.3,5.78,7.55,19.2,23.26,26.18,23.26.51,0,.98-.08,1.42-.26.9-.4,2,0,2.4.9.2.4.2.8.1,1.2Z" style="isolation:isolate" fill="#fff" opacity=".2"/></g></g><g id="Layer_8"><g><path d="M1741.27,415.22c8.26.15,17.05-2.58,24.49.55,0-.68,0-1.36,0-2.03,5.7,1.28,11.4,2.55,17.1,3.83-.39-.88-.77-1.75-1.16-2.63,3.9-.06,7.81.18,11.66.72-.36.02-.53-.45-.31-.71s.61-.33.97-.38c3.44-.5,6.97-.53,10.43-.11-.86-1.54-2.38-2.8-4.2-3.47,5.24-.21,10.51.09,15.69.87-1.98-5.01-8.25-7.54-13.91-9.52l2.27-.05c-1.35-2.17-3.73-3.7-6.22-4.89-17.03-8.16-36.75-3-54.08,4.36-7.05,3-14.56,6.43-22.31,5.36-3.28-.45-6.57-2.28-9.84-2.4-1.12-.04-4.74.73-4.4,2.23.31,1.34,6.74,2.36,8.12,2.75,11.39,3.22,19.2,5.4,25.7,5.52Z" style="isolation:isolate" fill="url(#linear-gradient-15)" opacity=".25"/><path d="M1793.57,406.9c-.1,1.1,1.25,2.41,2.4,3.48-2.41-1.23-4.95-2.01-7.39-2.28-1.23-.14-2.51-.13-3.25.47-.75.59-.67,1.92.39,2.73-2.61-1.86-6.92-4.5-9.84-2.84-1.24.71-1.49,2.35-.34,3.61-8.2-5.77-14.52-3.91-14.44-1.66.01.48.15,1.13-.45,1.23-5.98-5.28-16.67-3.6-23.98-3.79l4.74.26c-2.08.1-4.44.31-6.21-.32-.46-.02-.91-.06-1.36-.1l1.28.07c-1-.35-1.77-.94-1.9-1.73-.24-1.48,1.76-2.98,3.61-4.11,4.1-2.51,8.48-4.82,10.74-7.88,1.24-1.69,1.75-3.6,3.49-5.12-1.04.99.94,2.3,2.82,2.3,3.49,0,4.93-2.25,15.61-6.19-.28.87-1.06,1.59-1.39,2.45-.34.86-.11,1.99,1.12,2.66,2.6,1.44,4.66-.13,18.67-2.44-1.1.8-2.71,2.84-2.12,3.94.41.8,1.72,1.34,2.81,1.7,3.56,1.15,7.1,1.91,10.34,2.14-1.08.54-2.94,2.14-2.46,3.22.24.56.93,1.04,1.57,1.45,3.41,2.2,6.86,4.33,10.27,6.34-4.3-.34-9.39-1.91-13.16-.89-.77.2-1.5.56-1.57,1.3Z" class="cls-50"/><path d="M1789.49,375.4c-.43.84-.74,1.79-.29,2.49.67,1.06,2.62,1.02,4.26.87-2.71,1.15-5.24,2.65-7.43,4.41-1.1.89-2.18,1.93-2.44,3.08-.27,1.14.63,2.34,2.08,2.22-2.03.25-4.1.52-6.06,1.23-5.83,2.11-6.08,6.61-2.94,7.35-4.28.07-8.92.77-12.67,3.01-1.74,1.04-3.36,2.75-2.78,4.16.21.51.63,1.14.04,1.56-7.29-2.25-16.75,1.97-24.47,3.29l2.95-.26c-2.02.54-4.57,1.22-6.58.67-.47.03-.94.04-1.41.04l1.16-.1c-1.03-.3-1.85-.88-2.12-1.72-.53-1.66,1.19-3.54,2.78-5.08,3.5-3.41,7.08-7.06,8.15-11.08.59-2.22.38-4.45,1.38-6.64-.57,1.4,1.71,2.23,3.43,1.58,1.71-.66,2.79-2.09,3.71-3.41,2.31-3.29,4.62-6.58,6.93-9.87.27,1.32-.75,5.42,2.33,5.42,1.68.08,3.16-1.3,4.21-2.52,3.2-3.69,6.19-7.47,8.94-11.33-.28,1.44-.22,2.87.18,4.19.12.39.28.79.67,1.02.8.47,2.1.06,3.12-.41,3.33-1.53,6.31-3.66,8.57-6.14-.32,1.3-.36,2.6-.09,3.82.08.4.22.81.62,1.03.54.28,1.36.12,2.07-.07,3.85-1,7.63-2.4,11.19-4.14-1.1,1.51-2.45,2.94-3.81,4.35-2.18,2.24-4.39,4.46-5.68,6.98Z" class="cls-50"/><ellipse cx="1744.95" cy="400.11" fill="#d73a4a" rx="14.13" ry="13.26" transform="translate(-17.42 85.48) rotate(-2.79)"/><g><path d="M1786.56,396.01c-.06,0-.12.02-.19.03.02.01.05.03.06.04l.12-.07Z" class="cls-47"/><path d="M1760.93,411.52s-.1.07-.16.09c.11.07.17.02.16-.09Z" class="cls-47"/><path d="M1791.62,400.58c-.24-.36-.22-.92.15-1.14-1.82.04-4.49-.86-5.12-2.2-.11-.24-.08-1.01-.22-1.15,0,0-.67.05-.06-.04-.5-.39-2.19-.38-2.78-.53-1.7-.42-6-2.09-6.52-3.27-.17-.36-.06-.87.31-1.01-12.54-2.64-19.4.94-25.01,8.17-1.85,2.39-2.79,5.46-2.63,8.47,4.14.32,8.24,1.41,10.91,3.77.04,0,.08-.02.11-.04-.68-.47.64-4.29,6.41-4.34.47-.16.6.01.6.01,1.1.06,2.2.28,3.22.71.82-1.66,2.63-2.64,4.46-2.94,2.05-.33,7.81.07,9.24,1.84-.61-.9-.23-2.21.57-2.94.8-.74,1.91-1.04,2.97-1.25,2.39-.48,4.85-.67,7.29-.55-.89-.18-3.38-.79-3.9-1.56Z" class="cls-47"/><path d="M1760.93,411.52c.07-.06.12-.13.15-.22l-.25.15c.05-.07.09,0,.1.07Z" class="cls-47"/></g><path d="M1798.98,364.07c-1.1,1.51-2.45,2.94-3.81,4.35-.91.16-1.81.41-2.82.86-2.89,1.3-5.59,3.02-7.98,5.09-1.04.9-2.06,1.94-2.35,3.28-.3,1.34.47,2.99,1.83,3.15-3.6-.18-6.84,3.57-6.12,7.11-12.89-1.85-15.88,2.49-19.91,7.02-1.33-3.86-3.13-7.56-5.35-10.99,2.22-1.79,4.54-3.51,6.73-5.35,1.68.34,3.39-1.19,4.51-2.49,3.2-3.69,6.19-7.47,8.94-11.33-.28,1.44-.22,2.87.18,4.19.12.39.28.79.67,1.02.8.47,2.1.06,3.12-.41,3.33-1.53,6.31-3.66,8.57-6.14-.32,1.3-.36,2.6-.09,3.82.08.4.22.81.62,1.03.54.28,1.36.12,2.07-.07,3.85-1,7.63-2.4,11.19-4.14Z" class="cls-47"/><path d="M1750.22,391.47c2.21-3.01,5.69-5.2,9.11-6.8-2.93.61-4.13-2.91-.29-6.5,1.32-1.23,2.89-2.17,4.43-3.1-1.12.62-2.28.05-2.48-.89s.29-2.1.86-3.16c1.12-2.09,2.62-4.12,4.38-5.94-1.27.7-2.82,1.43-3.75.89-.61-.36-.71-1.17-.66-1.95.2-3.8,2.67-7.88,3.54-11.81-2.24,2.57-4.77,4.97-7.5,7.1-.51.39-1.1.81-1.64.79-.4-.01-.66-.27-.87-.53-.66-.81-1.1-1.79-1.31-2.87-1.1,3.13-5.65,10.94-7.95,8.55-.8-.83-1.37-1.87-1.66-3.04-.82,3.85-1.86,7.73-3.1,11.62-1.3,4.07-3.97,4.22-5.08,2.58-.5-.73-.69-1.68-1.23-2.37-2.27,11.07-2.24,12.2-3.77,13.67-1.14,1.1-3.28,1.31-3.33.07.16,4.3,2.14,7.62.95,12.06-.54,2-1.72,3.86-3.54,4.77-5.72,2.84-12.53-4.39-18.5-2.59,1.5.42,2.81,1.63,3.38,3.12,11.52,2.48,26.11,11.04,37.48,4.65,1.78-1,3.39-2.4,4.24-4.28,2.9-6.46-5.64-8.66-1.7-14.04Z" class="cls-89"/><g><path d="M1773.22,396.15c.13,2.8-1.12,5.51-3.09,7.69-.02.02-.04.05-.06.07-4.76,5.23-13.57,7.34-17.06.07-1.01-3.61.09-6.71,3.04-8.8.02-.02.03-.03.05-.04,4.77-3.41,13.3-3.3,17.12,1.01Z" class="cls-84"/><path d="M1771.05,402.55c-.26.44-.57.87-.92,1.29-.02.02-.04.05-.06.07-4.76,5.23-13.57,7.34-17.06.07-1.03-3.68.1-6.36,3.04-8.8.02-.02.03-.03.05-.04,1.63-1.35,3.61-2.25,5.63-2.36,0,5.06,4.26,9.53,9.32,9.77Z" class="cls-5"/><path d="M1772.23,395.27c-.15.83.25,1.71.94,2.18.07-.45.08-.88.06-1.3-.28-.31-.61-.61-.99-.88Z" class="cls-87"/></g><g><path d="M1740.94,383.77c-.42,6.94,6.43,14.16,12.61,11.9,18.28-8.46-12.03-40.02-12.61-11.9Z" class="cls-84"/><path d="M1744.09,373.52c.96.38,2.6.26,2.67-1.02-1.01-.23-2.07.19-2.67,1.02Z" class="cls-87"/><path d="M1740.94,383.77c2.26,23.06,29.18,9.12,13.91-7.19,3.02,7.73-9.06,12.85-13.91,7.19Z" class="cls-1"/><path d="M1745.49,378.92c-1.82,3.6-2.75-.88-1.56-2.64,2.65-4.7,3.02.36,1.56,2.64Z" class="cls-90"/><path d="M1745.48,372.54c-.51.08-1.04.58-1.26,1-1.41,2.53-2.73,5.03-3.07,7.94-.15,1.13-.19,2.28-.23,3.47-1.45-4.06.04-8.59,2.94-11.61.42-.5.99-.84,1.62-.8h0Z" class="cls-74"/></g><g><path d="M1758.49,402.58c-5.58,18.75-31.97,11-26.56-7.76,3.55-11.93,15.55-13.13,22.39-7.58.51.42,1,.88,1.45,1.37.11.05,1.47,1.59,2.34,3.62,1.23,2.85,1.53,6.35.38,10.35Z" class="cls-76"/><path d="M1758.49,402.58c-3.63,12.19-16.07,13.18-22.82,7.22-1.24-1.35-2.4-3.06-3.44-5.15,11.12,9.9,27.57-5.14,21.99-17.67.57.53,1.09,1.08,1.55,1.63.1.05,1.48,1.75,2.34,3.62,1.23,2.85,1.53,6.35.38,10.35Z" class="cls-1"/><path d="M1734.93,387.86c-6.98,8.1,1.3,20.99,9.39,8.42,11.72-8.57-2.29-15.82-9.39-8.42Z" class="cls-6"/><path d="M1739.77,387.81c-2.62-.34-5.99,5.03-1.69,3.75,1.12-.94,1.42-2.62,2.81-3.28.3-1.25-1.48-.87-1.78.05l.66-.52Z" class="cls-87"/><path d="M1746.67,386.08c7.16.82-3.68,8.23-6.12,7.13-.63-3.86,2.15-7.36,6.12-7.13Z" class="cls-90"/><path d="M1741.5,384.8c-7.52,1.43-11.51,11.36-9.54,18.29-3.53-6.72,1.31-18.38,9.54-18.29h0Z" class="cls-74"/></g><path fill="url(#linear-gradient-16)" d="M1795.14,405.6c3.77-1.02,8.86.55,13.16.89-3.41-2.01-6.86-4.14-10.27-6.34-1.12-.72-2.06-1.42-1.45-2.5.51-.91,1.31-1.65,2.34-2.17-3.24-.23-6.78-.99-10.34-2.14-1.09-.36-2.4-.9-2.81-1.7-.59-1.1.99-3.13,2.12-3.94-1.1.18-2.21.37-3.32.57-.77-.37-1.18-1.21-.98-2.02.26-1.15,1.34-2.19,2.44-3.08,2.19-1.76,4.72-3.26,7.43-4.41-1.64.15-3.59.19-4.26-.87-.45-.7-.14-1.65.29-2.49,1.29-2.52,3.5-4.74,5.68-6.98,1.36-1.41,2.71-2.84,3.81-4.35-3.56,1.74-7.34,3.14-11.19,4.14-.71.19-1.53.35-2.07.07-.4-.22-.54-.63-.62-1.03-.27-1.22-.23-2.52.09-3.82-2.26,2.48-5.24,4.61-8.57,6.14-1.02.47-2.32.88-3.12.41-.39-.23-.55-.63-.67-1.02-.4-1.32-.46-2.75-.18-4.19-2.75,3.86-5.74,7.64-8.94,11.33-1.28,1.48-3.14,3.06-4.97,2.36,1.37-1.38,3.03-2.38,4.73-3.39-1.12.62-2.28.05-2.48-.89-.2-.94.29-2.1.86-3.16,1.12-2.09,2.62-4.12,4.38-5.94-1.27.7-2.82,1.43-3.75.89-.61-.36-.71-1.17-.66-1.95.21-3.8,2.67-7.88,3.54-11.81-2.24,2.57-4.77,4.97-7.5,7.1-.51.39-1.1.81-1.64.79-.4-.01-.66-.27-.87-.53-.66-.81-1.1-1.79-1.31-2.87-1.1,3.13-5.65,10.95-7.95,8.55-.8-.83-1.37-1.87-1.66-3.04-.82,3.85-1.86,7.73-3.1,11.62-1.3,4.07-3.97,4.22-5.08,2.58-.5-.73-.69-1.68-1.23-2.37-2.27,11.07-2.24,12.2-3.77,13.67-1.14,1.1-3.28,1.31-3.33.07.16,4.3,2.14,7.62.95,12.06-.54,2-1.72,3.86-3.54,4.77-5.72,2.84-12.53-4.39-18.5-2.59,1.5.42,2.81,1.63,3.38,3.12,10.73,2.31,30.05,12.64,40.01,2.78,3.98.37,7.86,1.45,10.43,3.72.6-.1.46-.75.45-1.23-.07-2.19,6.14-4.17,14.44,1.66-1.15-1.26-.9-2.9.34-3.61,2.91-1.65,7.28,1.02,9.84,2.84-1.06-.81-1.14-2.14-.39-2.73.74-.6,2.02-.61,3.25-.47,2.44.27,4.98,1.05,7.39,2.28-1.15-1.07-2.5-2.38-2.4-3.48.07-.74.8-1.1,1.57-1.3Z"/></g><g><path d="M448.69,518.96v.7c-7.01,8.94-23.56,1.07-32.56-1.37-11.77-4.11-23.98-13.31-25.31-25.72-.6-5.15-.23-13.95,3.91-17.88l-.5.48c.27.19.46.06.48.01-11.48,34.78,30.57,37.61,53.98,43.78Z" class="cls-50"/><path d="M446.16,522.26c-12.44,4.29-28.9-3.12-40.17-8.86-9.77-5.85-18.43-16.44-13.05-26.93.81,22.54,27.52,35.9,53.23,35.79Z" class="cls-14"/><path d="M392.57,469.56c-.04,1.04.07,2.09-.11,3.13-.72,5.37.65,11.02,3.72,15.5-.03.12-.06.19-.09.3-3.56.03-4.86,4.65-4.96,4.68-1.44,4.65-1.12,9.77.47,14.35-10.04-6.5-18.81,6.14-20.07,15.37-1.47-1.47-4.28-1.16-5.4.59-3.98-5.63-13.46-2.34-13.12,4.54-5.17-6.29-15.87,1.44-19.57,6.5,2.3-6.68,2.42-17.53-6.47-18.6,7.14-.8,17.95-12.66,9.77-18.19,5.5-1.3,3.6-8.57-.91-10.02,5.92-.67,14.33-3.67,13.47-10.96,5.75,1.64,11.41-4.33,9.49-9.98,1.84.93,3.73,1.66,5.67,2.21t.01,0c9.13,2.63,18.81,1.57,28.12.59Z" class="cls-50"/><path d="M392.22,478.27c.45,3.29-.53,6.23-1.66,9.2l.24-1.35c-7.14,8.49-15.26-12.13-23.89-12.83-3.13-1.02-6.55-1.14-9.5-2.61,1.97.9,3.98-1.71,3.55-3.65-3.12-6.39-11.2-9.4-16.33-14.2,21.57,2.5-1.45-14.26-7.38-18.94,14.18,3.96,7.99-8.61,2.28-14.47,12.88,4.46,7.14-8.53,5.69-15.59,5,3.24,17.07,22.12,20.21,8.59.86,4.58,6.91,17.63,11.91,10.39-2.2,6.19,2.61,18.45,9.82,11.58-1.72,5.91-2.65,18.07,5.51,18.73.83-.16,1.93-.54,2.35.19-5.9,8.14-2.75,19.07-3.42,28.44l.62-3.47Z" class="cls-89"/><path d="M387.21,458.86c-11.37,26.39-7.28,30.03-26.51,10.12,1.37-6.59-11.98-11.68-16.08-16.15,21.56,2.5-1.45-14.26-7.38-18.94,14.17,3.96,7.99-8.62,2.27-14.48.1.04.2.06.3.09,2.19,2.86,6.65,6,10.23,4.2.4-3.14-.61-6.53-.72-9.74,1.47,4.86,4.65,11.19,10.58,10.53.64,4.02,4.52,12.09,9.19,8.15-1.4,6.38,6.76,21.06,12.65,12,.39,5.04,1.54,10.73,5.46,14.23Z" class="cls-50"/><path d="M422.4,510.95c-.27-.29-.48-.61-.63-.96.22.31.43.64.63.96Z" class="cls-77"/><path d="M423.76,476.85c0-.35.11-.81.55-.76-.08.15-.36.56-.55.76Z" class="cls-77"/><path d="M461.82,503.15c-5.43-2.93-22.07-6.68-23.33,1.37-4.55-4.62-18.83-2.99-16.72,5.46-2.02-3.15-12.38-14.61-14.54-7.18-1.11-3.39-4.92-13.86-9.3-8.78-.74-8.33-9.36-13.25-10.5-21.5-.82-4.91,2.84-11.12,8.17-11.29,4.08.11,6.77,4.08,9.85,6.38,4.76,3.86,12.92,7.51,18.06,2.49,2.49,7.34,12.42,10.31,18.91,6.36-2.15,7.02,4.44,14.39,11.66,13.06-2.14,5.8,2.93,11.06,7.74,13.61Z" class="cls-50"/><path d="M441.35,490.87c-2.27-1.07-10.92-2.37-8.24,2.16-4.61-2.37-11.02.12-12.83,4.97-2.92-5.87-11.45-4.69-14.87.2-1.06-2.67-4.9-8.29-7.48-4.18-.14-2.03-.84-3.92-1.79-5.7-.03.05-.04.09-.05.15-3.64.03-4.84,4.64-4.96,4.68-2.83,2.62-4.38,6.52-4.51,10.34-3.31-10.54-16-3.56-19.91,3.07-2.02-7.84-12.73-1.41-15.87,2.64-2.24-4.71-8.78,1.74-10.66,4.31,2.4-3.63,3.06-8.36,1.73-12.51,5.44-1.56,4.72-11.16,1.67-14.68,4.38-1.82,9.19-2.59,13.94-2.22,0-.01,0,0,0,0,.26.02.5.04.75.06-.73-8.27,12.6-7.08,17.83-4.84-2.92-3.32,13.27-8.13,15.8-9.31,6.08-1.76,14.29-5.15,18.97,1,.68.7,1.58,1.32,2.21.7,1.9-.37,9.57-1.85,11.32-2.19-4.84,6.7,5.97,17.03,12.84,12.67-2.39,3.27.82,7.41,4.09,8.67Z" class="cls-47"/><path d="M462.11,438.79c-7.31,3.16-19.51,13.81-10.27,21.12-6.01.01-15.87,2.45-16.09,9.67-15.16.76-28.45,12.6-44.33,9.56-1.43-18.05,8.09-25.72,19.56-33.34t.02,0c4.61-2.44,9.79-3.89,15.54-4.15.67,4.82,10.81-.18,13.46-1.61-.54,5.57,19.07.72,22.12-1.24Z" class="cls-89"/><path d="M434.2,455.62c.1,1.13,1.09,2.22,2.22,2.1-18.65,4.68-5.53,22.88-45.01,21.41-1.43-18.05,8.09-25.72,19.56-33.34t.02,0c11.38-3.9,8.56,7.34,23.67.5-1.36,3.4,7.98.25,9.65-.1-3.99,2.07-9.71,4.43-10.11,9.44Z" class="cls-50"/><path d="M380.77,471.86c.26.73.2,1.54-.28,2.15-10.16,9.24-21.52,18.16-35.04,21.71-5.77,1.51-13.81,1.35-16.53,7.71-4.77-6.69-15.67-6.56-20.08.45,3.97-11.23-8.56-16.02-14.4-6.37.29-8.24,14.82-17.1,10.73-22.15,5.16-8.91,26.8-9.57,18.47-17.1,4.57.62,9.68,1.01,14.04-.61,1.59-1.82-1.94-3.63-1.52-5.51,13.73,11.06,36.11,6.15,44.58,19.71Z" class="cls-89"/><path fill="#4d9c7f" d="M384.1,469.01c-1.55,5.33-8.07,6.72-12.54,8.98-4.84,1.98-13.31,7.82-18.18,9.72-6.72,2.6-18.81,2.24-24.28,6.93-1.12-8.02-12.06-5.51-16.54-.78,2.46-5.12-3.23-10.9-8.39-8.53,4.84-2.96,7.09-7.65,8.67-12.7,4.89.46,16.63-3.15,16.62-9,3.69,1.47,8.09,1.08,11.46-1.03.73-.45,8.61,3.02,9.95,3.34,6.45,3.26,33.3-1.32,33.12,3.08h.1Z" opacity=".6"/><path fill="#3c8a6f" d="M396.43,470.22c-11.66,2.55-41.03-8.28-51.82-17.39,21.57,2.5-1.45-14.26-7.38-18.94,17.46,10.09,32.4,31.62,59.2,36.33Z" opacity=".61"/><path fill="#3c8a6f" d="M382.3,472.08c-2.78,2.99-7.11,4.13-10.74,5.91-4.84,1.98-13.31,7.82-18.18,9.72-6.72,2.6-18.81,2.24-24.28,6.93-1.12-8.02-12.06-5.51-16.54-.78,2.46-5.12-3.23-10.9-8.39-8.53,14.02-12.38,33.17-6.39,49.83-9.69,9.02-.66,19.69-6.41,28.3-3.57Z" opacity=".5"/><g><path d="M380.37,474.37c-4.94,10.33-20.65,1.73-20.21-7.83,5.95-6.71,23.31-3.22,20.21,7.83Z" class="cls-84"/><path d="M378.6,475.58c-4.1,6.37-12.94,2.89-16.27-2.63,5.06-.24,9.32-4.71,9.32-9.78,6.34.35,10.43,6.96,6.95,12.41Z" class="cls-5"/><path d="M361.15,465.66c.15.83-.25,1.71-.94,2.18-.07-.45-.08-.88-.06-1.3.28-.31.61-.61.99-.88Z" class="cls-87"/></g><g><path d="M405.08,451.67c.27,6.95-6.72,14.02-12.85,11.63-18.1-8.84,12.86-39.76,12.85-11.63Z" class="cls-84"/><path d="M401.93,440.93c-.96.36-2.6.21-2.65-1.08,1.01-.21,2.06.23,2.65,1.08Z" class="cls-87"/><path d="M405.08,451.67c-2.73,23.01-29.36,8.52-13.76-7.48-3.17,7.67,8.79,13.03,13.76,7.48Z" class="cls-1"/></g><g><path d="M419.34,458.34c3.45,11.42-15.55,16.83-18.69,5.46-3.46-11.4,15.55-16.84,18.69-5.46Z" class="cls-84"/><path d="M418.51,465.16c-7.88,13.15-26.94-2-13.84-11.58-4.97,8.4,6.09,17.13,13.84,11.58Z" class="cls-1"/><path d="M419.34,463.2c-2.43,2.61-4.63.09-6.77-1.51-5.17-.49-8.29-3.73-6.15-9.03,7.17-3,15.09,3.03,12.92,10.54Z" class="cls-6"/><path d="M412.37,455.32c.67.63,2.54,3.39,2.72,1.11-.1-1.93-4.27-2.88-2.1-.31" class="cls-87"/></g><g><path d="M412.81,474.14c4.1,14.26-15.93,20.11-20.16,5.9-4.1-14.26,15.93-20.11,20.16-5.9Z" class="cls-84"/><path d="M412.51,473.23c-8.06-1.63-14.32,7.26-11.17,14.97-21.48-6.88-.43-36.32,11.17-14.97Z" class="cls-5"/><path d="M409.39,480.99c-.65.63-2.14,2.35-1.07,3.07,1.13-.09,3.66-3.25,1.58-3.49" class="cls-87"/></g><g><path fill="#f24658" d="M395.44,475.68c4.1,14.26-15.93,20.11-20.16,5.9-4.1-14.26,15.93-20.11,20.16-5.9Z"/><path d="M395.44,475.68c1.46,4.98-.42,10.09-4.28,12.62-1.6-7.36-9.98-11.46-16.06-7.38-3.47-13.85,16.56-19.02,20.34-5.24Z" class="cls-5"/><path d="M382.92,487.87c-.28-.69-2.14-2.17-2.3-.89-.09.83,2.96,1.91,2.3.89Z" class="cls-87"/></g><g><path d="M403.33,460.86c5.4,18.78-20.99,26.5-26.56,7.77-5.39-18.78,20.99-26.49,26.56-7.77Z" class="cls-76"/><path d="M403.03,470.69c-11.7,23.51-38.57-2.14-21.99-17.67-5.46,12.89,10.99,27.47,21.99,17.67Z" class="cls-1"/><path d="M400.33,453.9c6.98,8.1-1.3,20.99-9.39,8.42-11.72-8.57,2.29-15.82,9.39-8.42Z" class="cls-6"/><path d="M395.49,453.84c2.62-.34,5.99,5.03,1.69,3.75-1.12-.94-1.42-2.62-2.81-3.28-.3-1.25,1.48-.87,1.78.05l-.66-.52Z" class="cls-87"/></g><path d="M388.59,452.12c-7.16.82,3.68,8.23,6.12,7.13.63-3.86-2.15-7.36-6.12-7.13Z" class="cls-90"/><path d="M400.63,446.72c1.75,3.64,2.77-.83,1.61-2.6-2.56-4.75-3.03.3-1.61,2.6Z" class="cls-90"/><path d="M417.8,457.02c.76,5.43-2.1-1.54-3.31-2.41-.68-.65-1.18-1.23-.21-1.21,1.59.03,3.02,2.38,3.52,3.62Z" class="cls-90"/><path fill="none" stroke="#eae6ff" stroke-miterlimit="10" d="M461.82,503.15c-4.81-2.55-9.88-7.82-7.74-13.61-7.21,1.33-13.81-6.05-11.66-13.06"/><path d="M323.66,458.26c2.38,1.95,2.76,4.17,0,6.01-4.08,2.68-8.86,3.98-12.99,6.53-2.03,1.25-3.97,2.75-5.13,4.77l-.04-.47c2.8,3.81-2.52,8.66-4.64,11.6-1.35,1.66-2.68,3.33-3.8,5.11-1.11,1.77-2.04,3.71-2.13,5.72l-.91-.27c6.04-10.11,19.48-4.82,15.15,6.74,0,0-.64-.31-.64-.31,4.36-7.06,15.84-7.15,20.38-.26-4.66-6.42-15.66-6.23-19.78.64-.21.35-.78.09-.64-.3,3.77-10.62-8.17-15.24-13.63-6-.24.43-.95.22-.91-.27.31-4.56,3.54-8.01,6.19-11.39,1.85-2.58,7.04-7.27,4.69-10.52-.09-.13-.09-.31-.01-.44,1.33-2.2,3.41-3.7,5.51-4.94,4.2-2.48,9.02-3.69,13.17-6.18,2.69-1.64,2.36-3.8.16-5.77h0Z" class="cls-74"/><path d="M387.45,449.73c-2.46-4.71-1.82-10.43-.61-15.43,0,0,.51.31.51.31-5.61,5.56-10.28-.66-10.9-6.5-.23-1.8-.18-3.67.42-5.46l.84.43c-5.77,7.72-11.74-5.62-12.74-10.58,0,0,.86.02.86.02-3.8,14.13-15.54-5.07-20.64-8.69,4.22,2.47,12.55,14.91,17.48,12.7,1.41-.91,1.89-2.63,2.31-4.21.06-.24.3-.38.53-.32.17.04.29.18.33.34.33,1.57.92,3.13,1.58,4.63,1.32,2.73,2.99,6.14,5.86,7.34,1.51.55,2.81-.57,3.64-1.77.15-.22.45-.27.67-.11.18.13.24.35.17.54-.55,1.57-.62,3.33-.42,5.03.54,5.15,4.38,11.15,9.58,6.16.21-.22.61.03.51.32-1.3,4.89-2.16,10.49.01,15.26h0Z" class="cls-74"/><path d="M451.83,459.91c-9.2-6.83,1.68-17.37,8.63-20.86,0,0,.39.85.39.85-1.78.7-3.58,1.23-5.41,1.69-3.13.67-15.96,3.76-15.83-1.6,0,0,.54.36.54.36-2.7,1.32-12.78,6.33-13.63,1.29,1.08,4.75,10.7-.61,13.28-1.94,0,0,.6-.33.6-.33l-.06.69c-.07.8.47,1.4,1.3,1.66,2.58.83,5.44.36,8.11.02,3.63-.6,7.29-1.45,10.74-2.72,0,0,.39.85.39.85-6.69,3.41-17.49,12.91-9.06,20.03h0Z" class="cls-74"/><path d="M400.6,439.89c.64-.12,1.32.23,1.63.81,2.7,3.33,4.01,8.01,2.53,12.14.08-3.59-.57-7.06-2.16-10.28,0,0-.79-1.62-.79-1.62-.06-.12-.13-.32-.17-.41-.21-.3-.64-.59-1.04-.65h0Z" class="cls-74"/><path d="M393.32,450.43c2.07-.32,3.98,1,5.61,2.09,4.86,3.5,7.09,11.18,4.37,16.61,1.1-3.86.41-7.9-1.37-11.41-.85-1.72-1.87-3.4-3.47-4.57-1.55-1.19-3.08-2.61-5.14-2.72h0Z" class="cls-74"/><path d="M407.71,452.1c2.59-.67,5.69-.87,8.1.67,4.21,2.91,5.38,9.41,2.33,13.54-.64.91-1.52,1.62-2.42,2.23,1.67-1.4,2.89-3.29,3.28-5.37.81-4-.97-8.97-4.92-10.59-2-.78-4.24-.7-6.36-.48h0Z" class="cls-74"/><path fill="url(#linear-gradient-17)" d="M438.49,504.52c1.26-8.06,17.9-4.3,23.33-1.37-4.81-2.55-9.88-7.82-7.74-13.61-7.21,1.33-13.81-6.05-11.66-13.06-5.93,3.6-14.7,1.44-18.08-4.55,3.73-1.22,7.5-2.15,11.4-2.34.22-7.22,10.08-9.65,16.09-9.67-8.66-6.85,1.52-16.64,8.85-20.44-5.44,2.17-21.18,5.56-20.7.56-2.64,1.43-12.79,6.43-13.46,1.61-5.75.25-10.93,1.71-15.54,4.15t-.02,0c-2.06,1.37-4.05,2.74-5.93,4.17-.24-4.87-1.53-7.68-3.34-8.97.08-.02.16-.04.23-.07-.59-.85-1.64-1.29-2.65-1.08,0,.1.03.19.06.28-2.7-.23-5.86,1.63-8.37,4.43-1.65,1.76-2.79,3.5-3.51,5.17-2.3-4.19-1.5-11.26-.31-15.35-7.21,6.87-12.01-5.39-9.82-11.58-5,7.24-11.06-5.81-11.91-10.39-3.14,13.53-15.22-5.35-20.21-8.59,1.43,7,7.08,19.81-5.37,15.69,0,0-.01-.01-.02-.02-.1-.03-.2-.05-.3-.09,0,0,0,0,0,0,0,0,0,0,0,0,2.32,2.38,4.72,5.87,5.8,8.91.06.17.11.34.16.5.02.06.04.12.06.18.98,3.34.13,5.95-4.54,5.59-.1,0-.19,0-.3-.02-.04,0-.09-.01-.13-.02-.96-.11-2.07-.32-3.34-.68,1.18.93,3.03,2.33,5.07,3.97,8.24,6.6,19.6,16.97,2.31,14.97,0,0,0,0,0,0,0,0,0,0,0,0,0,0,0,0,.01.01,1.27,1.38,3.43,2.82,5.75,4.35,1.2.81,2.41,1.62,3.58,2.46-6.35-1.47-12.66-3.37-17.78-7.49-.43,1.88,3.11,3.69,1.52,5.51-4.36,1.61-9.47,1.23-14.04.61,8.33,7.53-13.31,8.19-18.47,17.1,4.09,5.05-10.45,13.92-10.73,22.15,5.83-9.65,18.37-4.86,14.4,6.37,4.41-7.02,15.31-7.14,20.08-.45,1.63-3.82,5.18-5.28,9-6.17-.36.18-.74.34-1.2.45,8.19,5.54-2.62,17.39-9.77,18.19,8.9,1.08,8.77,11.92,6.47,18.6,3.7-5.07,14.4-12.79,19.57-6.5-.33-6.87,9.14-10.16,13.12-4.54,1.13-1.75,3.93-2.06,5.4-.59,1.26-9.23,10.03-21.87,20.07-15.37-1.52-4.39-1.86-9.26-.62-13.75,2.04,12.36,14.22,20.72,25.15,24.54,2.44.66,20,8.32,28.72,4.37.44-.12.88-.25,1.31-.4-.17,0-.33,0-.5,0,1.13-.63,2.15-1.48,3.02-2.59v-.7c-17.91-4.72-46.74-7.49-54.14-24.11-.59-1.65-1.02-3.37-1.29-5.15.55-.52,1.19-.91,1.92-1.1.09-.02.19-.04.29-.05.05,0,.11-.02.16-.03.15-.02.31-.03.47-.03.01-.06.02-.1.05-.15.18.33.34.67.5,1.02.67,1.46,1.15,3,1.29,4.68,1.04-1.21,2.06-1.53,3.01-1.28,1.93.75,3.79,3.72,4.48,5.46,0,0,.01-.01.02-.02.82,1.77,1.45,3.55,1.8,4.63,2.16-7.43,12.51,4.03,14.54,7.18-2.11-8.46,12.17-10.08,16.72-5.46Z"/></g><g><path d="M1320.81,503.53c-6.88,3.2-20.95,6.99-18.46,10.64.48.71,1.47.78,2.33.77,6.84-.11,13.56-1.73,20.33-2.69,7.23-1.02,14.58-1.27,21.86-.76,4.09.29,8.23.81,12.25.04-1.46-2.05-3.28-3.69-1.05-4.19,3.81-.86,14.04.41,14.33-1.75.12-.86-1.4-1.42-1.08-2.23,3.76-.32,7.52-.7,11.27-1.16,3.03-.37,6.14-.82,8.75-2.4-2.06-2.05-4.81-3.26-7.54-4.26-30.72-11.23-50.7,2.26-63.01,7.98Z" style="isolation:isolate" fill="url(#linear-gradient-18)" opacity=".2"/><g><path d="M1352.21,462.16c-1.89,4.15-8.38,10.99-12.95,5.56.03,3.46-1.4,9.09-5.84,9.09-.36,8.7-1.39,19.27-12.12,27.29,11.14,1.12,22.34-6.19,26.95-12.66t0-.01c1.47-2.61,2.33-5.57,2.45-8.87-2.98-.46.04-6.21.9-7.71-3.43.22-.58-10.97.61-12.7Z" class="cls-89"/><path d="M1341.37,472.51c.03,6.27-3.66,8.15-5.88,6.06-2.79,15.5-6.87,20.33-14.19,25.53,11.14,1.12,22.34-6.19,26.95-12.66t0-.01c2.33-6.48-4.58-5.04-.47-13.62-2.08.73-.21-4.59,0-5.55-1.24,2.26-4.11,2.26-6.41.24Z" class="cls-50"/></g><path d="M1372.54,494.65c-2.63.33-11.29,1.15-13.5,3.01-2.23,1.63,1.02,3.53,3.52,4.67-4.26.9-9.51-.09-13.21,2.3-1.25.81-.04,2.38.25,3.19-.99.36-2.6.09-3.69.09-5.93.03-26.27.02-30.23-.41-1.04-.12-2.12-.22-3.09.15,7.94-4.1,16.78-3.74,21.62-17.01.3-.82.67-3.75,1.46-4.12.68-.33,2.03.97,2.95,1.01,4.04.22,6.46-5.44,7.31-8.61,1.62,5.95,8.1.99,8.92-2.99.33,5.44,7.72.46,9.65-1.69-2.67,8.18,9.79,2.04,13.47,1.92-3.97,4.3-9.79,8.21-1.98,10.09-.78.2-1.62.49-2.44.84-5.93,2.48-7.24,5.82-.99,7.56Z" class="cls-89"/><path d="M1358.44,498.33c-.36,2.11,1.46,2.53,4.12,4-3.37,1.14-16.63-.83-12.97,5.49-6.64.18-31.46-.85-37.01-.17,6.04-2.11,12.77-3.94,17.1-9.1,3.96-1.68,7.08-3.83,8.37-6.68,3.2-.6,5.64-3.24,7.46-5.8.22,6.69,9.25,1.52,10.55-2.31,1.21,3.59,5.86.55,7.48-1.37,2.93,2.25,6.65-.08,8.98-2.19-1.09,1.67-2.7,3.14-3.5,4.94,1.31,2.1,4.67,1.87,6.75,1.05,0,0,.01,0,.02,0,.06.02.12.04.19.05-4.02.95-12.65,5.76-3.43,8.4-3.24.58-11.68.76-14.1,3.67Z" class="cls-50"/><path d="M1332.81,494.13c-5.15,9.2-16.06,12.32-24.82,16.89,0,0-.86-1.65-.86-1.65,7.28-3.97,16.67-4.08,22.94-5.38,2.49-.51,4.93-1.26,7.27-2.43.06-.03.14,0,.17.06.03.05.01.11-.03.15-7.79,7.27-21.33,5.24-29.55,9.28-1.1.51-1.9-1.11-.81-1.67,8.95-4.24,19.72-6.62,25.47-15.37.07-.13.29-.01.21.13h0Z" class="cls-14"/><path d="M1313.69,507.56c11.7-5.97,17.35-3.41,23.86-17.23.67-1.45-1.74,8.49-8.89,12.69-6.03,4.01-16.01,5.08-14.97,4.54h0Z" class="cls-14"/><path d="M1340.83,486.96c2.69-1.83,4.01-5.08,4.9-8.09.03-.1.13-.16.23-.14.07.02.12.07.14.14.31,1,.85,2.01,1.78,2.39,2.92.82,6.06-2.78,6.66-5.39.06-.33.57-.29.58.04.39,5.06,7.47-.03,9.15-1.86.18-.21.55,0,.46.27-2.56,7.77,9.76,1.72,13.21,1.84-3.87.26-16.19,6.73-13.73-2.01,0,0,.46.27.46.27-2.11,2.3-9.56,7.48-10.14,1.53,0,0,.58.04.58.04-.78,4.11-7.72,9.25-9.39,2.99,0,0,.37,0,.37,0-.95,3.05-2.47,6.26-5.27,7.99h0Z" class="cls-74"/><g><g><path d="M1334.76,488.4c-1.33,3.68,1.49,8.28,5.42,7.5,11.31-3.16-1.15-20.94-5.42-7.5Z" class="cls-84"/><path d="M1338.12,483.77c.46.27,1.37.34,1.58-.28-.51-.19-1.14-.08-1.58.28Z" class="cls-87"/><path d="M1334.76,488.4c-2.46,13.2,15.19,7.29,8.65-2.53.7,4.2-6.77,5.94-8.65,2.53Z" class="cls-1"/></g><g><path d="M1325.44,490.6c-4.47,6.11,5.89,11.16,9.8,4.79,3.8-5.87-5.85-10.45-9.8-4.79Z" class="cls-84"/><path d="M1324.52,494.47c2,8.58,16.04,1.41,10.14-5.03,1.42,5.02-6.66,8.98-10.14,5.03Z" class="cls-1"/><path d="M1324.45,493.29c.89,1.71,2.7.49,4.26-.2,3.09.22,5.44-1.26,5.13-4.29-3.55-2.27-9.12.23-9.39,4.49Z" class="cls-6"/><path d="M1330.01,489.64c-.5.27-2.09,1.58-1.76.34.42-1.02,2.96-1.13,1.26.03" class="cls-87"/></g><g><path d="M1334.19,493.5c-6.77,10.56,8.13,18.04,14.12,6.89,5.16-9.82-8.08-16.13-14.12-6.89Z" class="cls-76"/><path d="M1332.62,499.15c2.86,16.21,22.75,2.33,15.24-7.8,1.47,7.58-10.36,14.84-15.24,7.8Z" class="cls-1"/><path d="M1337.05,490.02c-5.35,3.74-2.8,12.03,4.01,5.45,7.71-3.58,1.01-8.62-4.01-5.45Z" class="cls-6"/><path d="M1339.76,490.44c-1.41-.43-4.17,2.14-1.53,1.85.77-.4,1.2-1.27,2.08-1.49.35-.63-.69-.6-1-.14l.45-.21Z" class="cls-87"/><path d="M1343.83,490.17c3.83,1.09-3.23,4.08-4.45,3.25.23-2.14,2.29-3.74,4.45-3.25Z" class="cls-90"/><path d="M1341.46,488.86c-4.36.14-8.6,5.05-8.71,9.35-.84-4.48,4.11-10.14,8.71-9.35h0Z" class="cls-74"/></g><path d="M1338,486.28c-1.53,1.69-1.38-.67-.48-1.45,2.08-2.09,1.6.43.48,1.45Z" class="cls-90"/><path d="M1326.59,490.04c-1.53,2.9,1.5-.62,2.35-.97,1.56-.86-.55-1.13-2.35.97Z" class="cls-90"/><path d="M1338.91,483.42c-2.19.97-3.37,3.44-4.17,5.63-.19-2.25,1.71-5.62,4.17-5.63h0Z" class="cls-74"/><path d="M1333.21,488.38c-1.22-.33-2.51-.55-3.72-.31-3.49.76-6.45,5.43-4.01,8.6-2.09-1.92-1.19-5.2.56-7.06,1.76-2.08,4.82-2.45,7.17-1.24h0Z" class="cls-74"/></g><path fill="url(#linear-gradient-19)" d="M1377.95,476.16c-3.69.11-16.14,6.25-13.47-1.92-1.92,2.15-9.31,7.13-9.65,1.69-.49,2.39-3.01,5.12-5.3,5.65-.57-1.82,1.4-5.56,2.07-6.72-3.08.19-1.1-8.8.2-11.89-2.29,4.15-8.25,9.84-12.54,4.75.03,3.46-1.4,9.09-5.84,9.09-.15,3.59-.41,7.51-1.43,11.42-6.46-1.63-10.94,6.9-4.44,9.6-.98,1.35-2.13,2.67-3.48,3.95-5.84,3.43-13.63,5.8-16.93,7.6h0c-1.1.55-.3,2.19.8,1.68,4.44-2.18,9.42-2.5,14.28-3.3,1.59.04,26.29.46,27.38.06-.29-.81-1.5-2.38-.25-3.19,3.7-2.39,8.95-1.4,13.21-2.3-1.19-.54-3.39-1.63-4.04-2.77-2.16-3.29,10.44-4.46,14.02-4.91-8.68-2.42-1.59-7.11,3.44-8.4-.07-.02-.14-.03-.21-.05-7.93-1.8-.83-6.79,2.18-10.04Z"/></g></g></svg>